<?xml version="1.0" encoding="utf-8"?>
<!-- Generator: Adobe Illustrator 17.0.0, SVG Export Plug-In . SVG Version: 6.00 Build 0)  -->
<!DOCTYPE svg PUBLIC "-//W3C//DTD SVG 1.1//EN" "http://www.w3.org/Graphics/SVG/1.1/DTD/svg11.dtd">
<svg version="1.1"
	 id="svg2" xmlns:dc="http://purl.org/dc/elements/1.1/" xmlns:cc="http://creativecommons.org/ns#" xmlns:rdf="http://www.w3.org/1999/02/22-rdf-syntax-ns#" xmlns:svg="http://www.w3.org/2000/svg" xmlns:sodipodi="http://sodipodi.sourceforge.net/DTD/sodipodi-0.dtd" xmlns:inkscape="http://www.inkscape.org/namespaces/inkscape" sodipodi:docname="manual_aplicacao_curvas.svg" inkscape:version="0.48.4 r9939"
	 xmlns="http://www.w3.org/2000/svg" xmlns:xlink="http://www.w3.org/1999/xlink" x="0px" y="0px" width="718px" height="213.5px"
	 viewBox="65.5 0 718 213.5" enable-background="new 65.5 0 718 213.5" xml:space="preserve">
<sodipodi:namedview  inkscape:cy="340" inkscape:cx="400" inkscape:zoom="1" showgrid="false" guidetolerance="10" gridtolerance="10" objecttolerance="10" borderopacity="1" bordercolor="#666666" pagecolor="#ffffff" id="namedview4" inkscape:current-layer="g10" inkscape:window-maximized="0" inkscape:window-y="160" inkscape:window-x="320" inkscape:window-height="480" inkscape:window-width="640" inkscape:pageshadow="2" inkscape:pageopacity="0">
	</sodipodi:namedview>
<g id="g34" transform="translate(253.3105,408.5586)">
	<path id="path36" inkscape:connector-curvature="0" fill="#1B75BB" d="M63.328-319.257l-12.659,49.589h13.605
		c9.018,0,15.903-1.961,20.659-5.886c4.754-3.923,8.299-10.454,10.631-19.594c2.251-8.816,2.118-15.038-0.395-18.666
		c-2.514-3.629-8.02-5.443-16.516-5.443H63.328z M45.84-338.044h42.926c12.925,0,22.01,3.924,27.253,11.772
		c5.243,7.849,6.073,18.786,2.491,32.818c-1.469,5.753-3.573,11.034-6.311,15.844c-2.741,4.811-6.158,9.208-10.247,13.182
		c-4.87,4.785-10.124,8.213-15.76,10.281c-5.637,2.07-12.677,3.105-21.121,3.105H45.914l-8.049,31.526H15.581
		C15.581-219.516,45.84-338.044,45.84-338.044z"/>
</g>
<g id="g38" transform="translate(317.48,448.8115)">
	<path id="path40" inkscape:connector-curvature="0" fill="#1B75BB" d="M79.37-409.826h22.128l-8.049,31.529h19.783
		c12.405,0,20.744,2.513,25.011,7.539c4.269,5.026,4.976,13.131,2.121,24.31l-14.079,55.154h-22.441l13.4-52.492
		c1.524-5.966,1.504-10.024-0.059-12.175c-1.561-2.15-5.184-3.225-10.865-3.225H88.571l-17.333,67.892H49.111L79.37-409.826z"/>
</g>
<g id="g42" transform="translate(395.8779,408.5586)">
	<path id="path44" inkscape:connector-curvature="0" fill="#1B75BB" d="M98.969-319.257l-12.659,49.589h13.605
		c9.018,0,15.902-1.961,20.659-5.886c4.754-3.923,8.299-10.454,10.631-19.594c2.251-8.816,2.117-15.038-0.395-18.666
		c-2.514-3.629-8.02-5.443-16.516-5.443H98.969z M81.482-338.044h42.926c12.925,0,22.011,3.924,27.252,11.772
		c5.243,7.849,6.073,18.786,2.491,32.818c-1.469,5.753-3.573,11.034-6.311,15.844c-2.743,4.811-6.158,9.208-10.247,13.182
		c-4.87,4.785-10.124,8.213-15.76,10.281c-5.638,2.07-12.678,3.105-21.121,3.105H81.556l-8.049,31.526H51.224
		C51.224-219.516,81.482-338.044,81.482-338.044z"/>
</g>
<g id="g46" transform="translate(438.4834,368.501)">
	<path id="path48" inkscape:connector-curvature="0" fill="#1B75BB" d="M109.621-229.127h46.991c4.17,0,7.376-0.671,9.623-2.015
		c2.246-1.345,3.746-3.494,4.501-6.45c0.754-2.957,0.342-5.121-1.236-6.492s-4.429-2.055-8.545-2.055H141.72
		c-11.414,0-18.671-1.801-21.762-5.404c-3.096-3.6-3.47-9.997-1.122-19.19c2.387-9.354,6.566-16.232,12.54-20.642
		c5.974-4.406,14.042-6.611,24.208-6.611h47.851l-4.631,18.143h-39.329c-6.413,0-10.731,0.579-12.952,1.732
		c-2.225,1.158-3.714,3.215-4.47,6.17c-0.685,2.688-0.342,4.664,1.03,5.925c1.37,1.265,3.881,1.895,7.53,1.895h20.174
		c9.226,0,15.696,2.217,19.413,6.654c3.715,4.434,4.502,10.845,2.362,19.23c-2.059,8.064-5.882,14.621-11.472,19.675
		c-5.591,5.052-11.775,7.58-18.553,7.58h-57.546L109.621-229.127z"/>
</g>
<g id="g50" transform="translate(537.4443,408.5586)">
	<path id="path52" inkscape:connector-curvature="0" fill="#1B75BB" d="M134.361-319.257l-12.659,49.589h13.605
		c9.018,0,15.903-1.961,20.659-5.886c4.754-3.923,8.299-10.454,10.631-19.594c2.251-8.816,2.117-15.038-0.395-18.666
		c-2.514-3.629-8.02-5.443-16.516-5.443H134.361z M116.874-338.044H159.8c12.925,0,22.011,3.924,27.253,11.772
		c5.242,7.849,6.072,18.786,2.491,32.818c-1.469,5.753-3.572,11.034-6.311,15.844c-2.742,4.811-6.158,9.208-10.247,13.182
		c-4.87,4.785-10.124,8.213-15.76,10.281c-5.637,2.07-12.678,3.105-21.121,3.105h-19.156l-8.049,31.526H86.616
		C86.616-219.516,116.874-338.044,116.874-338.044z"/>
</g>
<g id="g54" transform="translate(522.5801,334.0562)">
	<path id="path56" inkscape:connector-curvature="0" fill="#B5B5B5" d="M130.645-151.626h5.044l-1.381,5.414h-5.044L130.645-151.626
		z"/>
</g>
<g id="g58" transform="translate(533.2129,338.8442)">
	<path id="path60" inkscape:connector-curvature="0" fill="#B5B5B5" d="M133.303-162.399c-0.554,2.17-0.495,3.863,0.181,5.075
		c0.674,1.212,1.894,1.82,3.656,1.82c1.751,0,3.279-0.607,4.588-1.82c1.306-1.213,2.236-2.905,2.791-5.075
		c0.554-2.171,0.49-3.859-0.194-5.066c-0.684-1.205-1.906-1.808-3.669-1.808c-1.751,0-3.276,0.606-4.577,1.819
		C134.781-166.241,133.852-164.557,133.303-162.399 M150.652-162.399c-0.916,3.581-2.7,6.439-5.356,8.575
		c-2.659,2.136-5.779,3.204-9.361,3.204c-3.581,0-6.164-1.071-7.751-3.214c-1.586-2.144-1.924-4.997-1.013-8.565
		c0.915-3.581,2.713-6.447,5.392-8.597c2.684-2.149,5.816-3.225,9.398-3.225c3.555,0,6.12,1.076,7.697,3.225
		C151.236-168.847,151.564-165.981,150.652-162.399"/>
</g>
<g id="g62" transform="translate(550.5977,347.98)">
	<path id="path64" inkscape:connector-curvature="0" fill="#B5B5B5" d="M137.649-182.955h9.821c2.298,0,3.799,0.426,4.505,1.279
		c0.705,0.854,0.786,2.344,0.244,4.474l-0.971,3.805h-5.579l0.75-2.939c0.226-0.889,0.224-1.484-0.005-1.788
		c-0.232-0.302-0.894-0.454-1.988-0.454h-2.051l-4.706,18.44h-5.845L137.649-182.955z"/>
</g>
<g id="g66" transform="translate(570.4863,333.498)">
	<path id="path68" inkscape:connector-curvature="0" fill="#B5B5B5" d="M142.622-150.37h3.035l3.374-13.217h-3.035
		c-1.462,0-2.503,0.056-3.117,0.17c-0.618,0.111-1.179,0.303-1.685,0.571c-1.046,0.563-1.896,1.306-2.549,2.23
		c-0.654,0.924-1.169,2.125-1.545,3.605c-0.625,2.44-0.537,4.156,0.264,5.15C138.162-150.867,139.914-150.37,142.622-150.37
		 M150.549-146.479c-0.799,3.13-2.064,5.428-3.791,6.894c-1.726,1.466-4.026,2.2-6.897,2.2h-11.465l1.184-4.633h10.46
		c1.12,0,2.053-0.277,2.798-0.835c0.743-0.557,1.25-1.364,1.519-2.421l0.098-0.381h-4.759c-2.459,0-4.182-0.19-5.166-0.571
		c-0.981-0.38-1.814-1.029-2.495-1.945c-0.791-1.029-1.271-2.313-1.448-3.849c-0.176-1.536-0.034-3.2,0.423-4.991
		c0.449-1.761,1.153-3.408,2.111-4.939c0.958-1.529,2.095-2.807,3.411-3.837c1.186-0.959,2.471-1.645,3.848-2.061
		c1.378-0.415,3.091-0.624,5.141-0.624h10.643C156.162-168.473,150.549-146.479,150.549-146.479z"/>
</g>
<g id="g70" transform="translate(579.2695,334.0562)">
	<path id="path72" inkscape:connector-curvature="0" fill="#B5B5B5" d="M144.817-151.626h5.044l-1.381,5.414h-5.044L144.817-151.626
		z"/>
</g>
<g id="g74" transform="translate(595.0664,344.0381)">
	<path id="path76" inkscape:connector-curvature="0" fill="#B5B5B5" d="M148.767-174.086h-3.568l-3.32,13.006h4.019
		c2.229,0,3.916-0.483,5.066-1.449c1.15-0.965,2.019-2.605,2.607-4.917c0.61-2.383,0.549-4.085-0.184-5.106
		C152.658-173.574,151.118-174.086,148.767-174.086 M148.569-187.283l-2.113,8.27h5.025c2.214,0,3.924,0.271,5.124,0.814
		c1.201,0.544,2.12,1.443,2.758,2.698c0.539,1.042,0.846,2.195,0.92,3.456c0.075,1.263-0.081,2.648-0.466,4.156
		c-0.935,3.666-2.615,6.531-5.044,8.596c-2.428,2.065-5.338,3.099-8.726,3.099h-11.26l7.938-31.089
		C142.724-187.283,148.569-187.283,148.569-187.283z"/>
</g>
<g id="g78" transform="translate(607.3516,347.98)">
	<path id="path80" inkscape:connector-curvature="0" fill="#B5B5B5" d="M151.838-182.955h9.824c2.298,0,3.799,0.426,4.505,1.279
		c0.702,0.854,0.786,2.344,0.241,4.474l-0.971,3.805h-5.579l0.75-2.939c0.226-0.889,0.224-1.484-0.005-1.788
		c-0.23-0.302-0.891-0.454-1.985-0.454h-2.051l-4.706,18.44h-5.845L151.838-182.955z"/>
</g>
<g id="g82" transform="translate(208.3672,391.9346)" inkscape:export-ydpi="90" inkscape:export-xdpi="90" inkscape:export-filename="/home/duodraco/Dropbox/Hackaton PHPSP/favicon.png">
	<path id="path84" inkscape:connector-curvature="0" fill="#FFFFFF" d="M52.092-281.853c0,49.429-40.071,89.5-89.499,89.5
		c-49.429,0-89.497-40.071-89.497-89.5c0-49.428,40.069-89.496,89.497-89.496C12.021-371.349,52.092-331.28,52.092-281.853"/>
</g>
<g id="g86" transform="translate(208.3677,391.8335)" inkscape:export-ydpi="90" inkscape:export-xdpi="90" inkscape:export-filename="/home/duodraco/Dropbox/Hackaton PHPSP/favicon.png">
	<path id="path88" inkscape:connector-curvature="0" fill="none" stroke="#1B75BB" stroke-width="10" d="M52.092-281.625
		c0,49.429-40.07,89.5-89.499,89.5s-89.499-40.071-89.499-89.5c0-49.427,40.07-89.499,89.499-89.499S52.092-331.053,52.092-281.625z
		"/>
</g>
<g id="g90" inkscape:export-ydpi="90" inkscape:export-xdpi="90" inkscape:export-filename="/home/duodraco/Dropbox/Hackaton PHPSP/favicon.png">
	<g>
		<defs>
			<path id="SVGID_1_" d="M81.464,110.081c0,49.43,40.069,89.5,89.497,89.5l0,0c49.428,0,89.497-40.07,89.497-89.5l0,0
				c0-49.426-40.07-89.495-89.497-89.495l0,0C121.533,20.586,81.464,60.655,81.464,110.081"/>
		</defs>
		<clipPath id="SVGID_2_">
			<use xlink:href="#SVGID_1_"  overflow="visible"/>
		</clipPath>
		<g id="g92" clip-path="url(#SVGID_2_)">
			<g id="g98" transform="translate(140.7305,409.4736)">
				<path id="path100" fill="#2CB5D3" d="M35.183-321.316l-0.061,8.682l-1.506-0.81l-0.569-9.096L35.183-321.316z M34.77-336.336
					l0.077,7.857l-1.432-0.781l-0.569-8.374C32.846-337.633,34.77-336.336,34.77-336.336z M32.094-349.649l2.195,1.543l0.046,7.83
					l-1.726-1.12L32.094-349.649z M36.359-346.592l1.764,1.271l-0.432,7.251l-1.419-0.869
					C36.271-338.938,36.359-346.592,36.359-346.592z M38.571-258.894c3.464,0,6.862,0.069,10.215,0.194l2.183-43.331v-0.001
					l1.96-38.89l-25.889-19.18l6.964,101.261C35.521-258.871,37.043-258.894,38.571-258.894"/>
			</g>
			<g id="g102" transform="translate(170.8027,357.7129)">
				<path id="path104" fill="#2CB5D3" d="M42.701-204.854l12.119-44.243l-16.132-9.777l-8.391,52.63
					C34.496-205.89,38.623-205.426,42.701-204.854"/>
			</g>
			<g id="g106" transform="translate(100.6201,395.4395)">
				<path id="path108" fill="#2CB5D3" d="M25.155-289.739l4.413,1.675l1.845,7.124l-3.263-0.185L25.155-289.739z M59.749-244.119
					l-8.52-42.861l-11.6-4.279L18.641-299l21.034,57.274C46.236-242.798,52.939-243.593,59.749-244.119"/>
			</g>
			<g id="g110" transform="translate(104.1499,394.0996)">
				<path id="path112" fill="#FFFFFF" d="M26.037-286.724l-4.413-1.675l2.995,8.614l3.263,0.185L26.037-286.724z"/>
			</g>
			<g id="g114" transform="translate(140.0156,430.9063)">
				<path id="path116" fill="#FFFFFF" d="M35.004-369.539l-2.195-1.543l0.515,8.251l1.726,1.12L35.004-369.539z"/>
			</g>
			<g id="g118" transform="translate(140.4629,415.2036)">
				<path id="path120" fill="#FFFFFF" d="M35.116-334.208l-0.079-7.858l-1.924-1.297l0.57,8.374L35.116-334.208z"/>
			</g>
			<g id="g122" transform="translate(140.6816,402.5273)">
				<path id="path124" fill="#FFFFFF" d="M35.17-305.686l0.061-8.682l-2.136-1.224l0.569,9.096L35.17-305.686z"/>
			</g>
			<g id="g126" transform="translate(143.082,428.6772)">
				<path id="path128" fill="#FFFFFF" d="M35.771-364.524l-1.763-1.271l-0.087,7.652l1.417,0.869L35.771-364.524z"/>
			</g>
			<g id="g130" transform="translate(199.0195,353.9287)">
				<path id="path132" fill="#1B75BB" d="M49.755-196.34l1.191-2.101C49.071-198.513,49.355-197.462,49.755-196.34"/>
			</g>
			<g id="g134" transform="translate(170.8027,357.7129)">
				<path id="path136" fill="#1B75BB" d="M42.701-204.854c-4.077-0.572-8.205-1.036-12.405-1.39l8.391-52.63l-17.79,8.601v0.001
					l-2.183,43.331c-3.352-0.125-6.751-0.194-10.215-0.194c-1.529,0-3.05,0.024-4.569,0.053l-6.963-101.261l-35.2,26.01
					l7.677,28.801l11.601,4.278l8.519,42.862c-6.81,0.525-13.511,1.32-20.072,2.393l-21.035-57.275l-16.089,11.74l24.19,48.041
					c-11.495,2.559-22.513,5.933-32.905,10.051l1.811,4.525c25.566-7.433,53.614-11.539,83.034-11.539
					c22.199,0,40.021,1.59,60.182,5.93c11.814,2.544-7.979-0.124,2.876,3.729l4.975-8.785c-0.844-0.065-2.031-0.307-3.694-0.792
					C62.928-201.269,52.977-203.41,42.701-204.854"/>
			</g>
			<g id="g138" transform="translate(197.8691,351.8945)">
				<path id="path140" fill="#1B75BB" d="M49.467-191.763c2.541,0.2,1.911-1.22,1.438-2.542L49.467-191.763z"/>
			</g>
		</g>
	</g>
</g>
</svg>
