<?xml version="1.0" encoding="UTF-8" standalone="no"?>
<!-- Created with Inkscape (http://www.inkscape.org/) -->

<svg
   xmlns:dc="http://purl.org/dc/elements/1.1/"
   xmlns:cc="http://creativecommons.org/ns#"
   xmlns:rdf="http://www.w3.org/1999/02/22-rdf-syntax-ns#"
   xmlns:svg="http://www.w3.org/2000/svg"
   xmlns="http://www.w3.org/2000/svg"
   xmlns:sodipodi="http://sodipodi.sourceforge.net/DTD/sodipodi-0.dtd"
   xmlns:inkscape="http://www.inkscape.org/namespaces/inkscape"
   id="svg2"
   version="1.1"
   inkscape:version="0.48.4 r9939"
   width="800"
   height="600"
   xml:space="preserve"
   sodipodi:docname="manual_aplicacao_curvas.svg"><metadata
     id="metadata8"><rdf:RDF><cc:Work
         rdf:about=""><dc:format>image/svg+xml</dc:format><dc:type
           rdf:resource="http://purl.org/dc/dcmitype/StillImage" /><dc:title></dc:title></cc:Work></rdf:RDF></metadata><defs
     id="defs6"><clipPath
       clipPathUnits="userSpaceOnUse"
       id="clipPath18"><path
         d="M 0,480 640,480 640,0 0,0 0,480 z"
         id="path20" /></clipPath><clipPath
       clipPathUnits="userSpaceOnUse"
       id="clipPath30"><path
         d="M 0,480 640,480 640,0 0,0 0,480 z"
         id="path32" /></clipPath><clipPath
       clipPathUnits="userSpaceOnUse"
       id="clipPath94"><path
         d="m 65.171,391.935 c 0,-39.544 32.055,-71.6 71.598,-71.6 l 0,0 c 39.542,0 71.598,32.056 71.598,71.6 l 0,0 c 0,39.541 -32.056,71.596 -71.598,71.596 l 0,0 c -39.543,0 -71.598,-32.055 -71.598,-71.596"
         id="path96" /></clipPath><clipPath
       clipPathUnits="userSpaceOnUse"
       id="clipPath146"><path
         d="M 0,480 640,480 640,0 0,0 0,480 z"
         id="path148" /></clipPath><clipPath
       clipPathUnits="userSpaceOnUse"
       id="clipPath210"><path
         d="m 25.004,257.424 c 0,-20.237 16.405,-36.645 36.643,-36.645 l 0,0 c 20.238,0 36.644,16.408 36.644,36.645 l 0,0 c 0,20.238 -16.406,36.644 -36.644,36.644 l 0,0 c -20.238,0 -36.643,-16.406 -36.643,-36.644"
         id="path212" /></clipPath><clipPath
       clipPathUnits="userSpaceOnUse"
       id="clipPath262"><path
         d="M 0,480 640,480 640,0 0,0 0,480 z"
         id="path264" /></clipPath><radialGradient
       fx="0"
       fy="0"
       cx="0"
       cy="0"
       r="1"
       gradientUnits="userSpaceOnUse"
       gradientTransform="matrix(36.644531,0,0,-36.644531,374.37891,257.39844)"
       spreadMethod="pad"
       id="radialGradient326"><stop
         style="stop-opacity:1;stop-color:#f9af18"
         offset="0"
         id="stop328" /><stop
         style="stop-opacity:1;stop-color:#ffcf40"
         offset="0.5"
         id="stop330" /><stop
         style="stop-opacity:1;stop-color:#f6921e"
         offset="1"
         id="stop332" /></radialGradient><clipPath
       clipPathUnits="userSpaceOnUse"
       id="clipPath340"><path
         d="M 0,480 640,480 640,0 0,0 0,480 z"
         id="path342" /></clipPath><clipPath
       clipPathUnits="userSpaceOnUse"
       id="clipPath352"><path
         d="m 337.735,257.399 c 0,-20.237 16.406,-36.645 36.644,-36.645 l 0,0 c 20.239,0 36.645,16.408 36.645,36.645 l 0,0 c 0,20.238 -16.406,36.644 -36.645,36.644 l 0,0 c -20.238,0 -36.644,-16.406 -36.644,-36.644"
         id="path354" /></clipPath><clipPath
       clipPathUnits="userSpaceOnUse"
       id="clipPath404"><path
         d="M 0,480 640,480 640,0 0,0 0,480 z"
         id="path406" /></clipPath><clipPath
       clipPathUnits="userSpaceOnUse"
       id="clipPath468"><path
         d="m 23.78,162.786 c 0,-20.237 16.406,-36.646 36.644,-36.646 l 0,0 c 20.237,0 36.644,16.409 36.644,36.646 l 0,0 c 0,20.237 -16.407,36.644 -36.644,36.644 l 0,0 c -20.238,0 -36.644,-16.407 -36.644,-36.644"
         id="path470" /></clipPath><clipPath
       clipPathUnits="userSpaceOnUse"
       id="clipPath520"><path
         d="M 0,480 640,480 640,0 0,0 0,480 z"
         id="path522" /></clipPath><radialGradient
       fx="0"
       fy="0"
       cx="0"
       cy="0"
       r="1"
       gradientUnits="userSpaceOnUse"
       gradientTransform="matrix(36.644531,0,0,-36.644531,373.15527,162.75977)"
       spreadMethod="pad"
       id="radialGradient584"><stop
         style="stop-opacity:1;stop-color:#f9af18"
         offset="0"
         id="stop586" /><stop
         style="stop-opacity:1;stop-color:#ffcf40"
         offset="0.5"
         id="stop588" /><stop
         style="stop-opacity:1;stop-color:#f6921e"
         offset="1"
         id="stop590" /></radialGradient><clipPath
       clipPathUnits="userSpaceOnUse"
       id="clipPath598"><path
         d="M 0,480 640,480 640,0 0,0 0,480 z"
         id="path600" /></clipPath><clipPath
       clipPathUnits="userSpaceOnUse"
       id="clipPath610"><path
         d="m 336.512,162.761 c 0,-20.238 16.405,-36.646 36.643,-36.646 l 0,0 c 20.239,0 36.645,16.408 36.645,36.646 l 0,0 c 0,20.237 -16.406,36.643 -36.645,36.643 l 0,0 c -20.238,0 -36.643,-16.406 -36.643,-36.643"
         id="path612" /></clipPath><clipPath
       clipPathUnits="userSpaceOnUse"
       id="clipPath662"><path
         d="M 0,480 640,480 640,0 0,0 0,480 z"
         id="path664" /></clipPath><clipPath
       clipPathUnits="userSpaceOnUse"
       id="clipPath682"><path
         d="M 0,480 640,480 640,0 0,0 0,480 z"
         id="path684" /></clipPath><clipPath
       clipPathUnits="userSpaceOnUse"
       id="clipPath704"><path
         d="M 0,480 640,480 640,0 0,0 0,480 z"
         id="path706" /></clipPath></defs><sodipodi:namedview
     pagecolor="#ffffff"
     bordercolor="#666666"
     borderopacity="1"
     objecttolerance="10"
     gridtolerance="10"
     guidetolerance="10"
     inkscape:pageopacity="0"
     inkscape:pageshadow="2"
     inkscape:window-width="640"
     inkscape:window-height="480"
     id="namedview4"
     showgrid="false"
     inkscape:zoom="1"
     inkscape:cx="400"
     inkscape:cy="340"
     inkscape:window-x="320"
     inkscape:window-y="160"
     inkscape:window-maximized="0"
     inkscape:current-layer="g10" /><g
     id="g10"
     inkscape:groupmode="layer"
     inkscape:label="manual_aplicacao_curvas"
     transform="matrix(1.25,0,0,-1.25,0,600)"><path
       d="m 631.472,115.333 -619.056,0 0,94.828 619.056,0 0,-94.828 z"
       style="fill:#231f20;fill-opacity:1;fill-rule:nonzero;stroke:none"
       id="path24" /><g
       id="g34"
       transform="translate(253.3105,408.5586)"><path
         d="m 0,0 -10.127,-39.671 10.884,0 c 7.214,0 12.722,1.569 16.527,4.709 3.803,3.138 6.639,8.363 8.505,15.675 1.801,7.053 1.694,12.03 -0.316,14.933 C 23.462,-1.451 19.057,0 12.26,0 L 0,0 z m -13.99,15.03 34.341,0 c 10.34,0 17.608,-3.139 21.802,-9.418 4.194,-6.279 4.858,-15.029 1.993,-26.254 -1.175,-4.602 -2.858,-8.827 -5.049,-12.675 -2.193,-3.849 -4.926,-7.366 -8.198,-10.546 -3.896,-3.828 -8.099,-6.57 -12.608,-8.225 -4.51,-1.656 -10.142,-2.484 -16.897,-2.484 l -15.325,0 -6.439,-25.221 -17.827,0 24.207,94.823 z"
         style="fill:#1b75bb;fill-opacity:1;fill-rule:nonzero;stroke:none"
         id="path36"
         inkscape:connector-curvature="0" /></g><g
       id="g38"
       transform="translate(317.48,448.8115)"><path
         d="m 0,0 17.702,0 -6.439,-25.223 15.826,0 c 9.924,0 16.595,-2.01 20.009,-6.031 3.415,-4.021 3.981,-10.505 1.697,-19.448 l -11.263,-44.123 -17.953,0 10.72,41.994 c 1.219,4.773 1.203,8.019 -0.047,9.74 -1.249,1.72 -4.147,2.58 -8.692,2.58 l -14.199,0 -13.866,-54.314 -17.702,0 L 0,0 z"
         style="fill:#1b75bb;fill-opacity:1;fill-rule:nonzero;stroke:none"
         id="path40"
         inkscape:connector-curvature="0" /></g><g
       id="g42"
       transform="translate(395.8779,408.5586)"><path
         d="m 0,0 -10.127,-39.671 10.884,0 c 7.214,0 12.722,1.569 16.527,4.709 3.803,3.138 6.639,8.363 8.505,15.675 1.801,7.053 1.694,12.03 -0.316,14.933 C 23.462,-1.451 19.057,0 12.26,0 L 0,0 z m -13.99,15.03 34.341,0 c 10.34,0 17.609,-3.139 21.802,-9.418 4.194,-6.279 4.858,-15.029 1.993,-26.254 -1.175,-4.602 -2.858,-8.827 -5.049,-12.675 -2.194,-3.849 -4.926,-7.366 -8.198,-10.546 -3.896,-3.828 -8.099,-6.57 -12.608,-8.225 -4.51,-1.656 -10.142,-2.484 -16.897,-2.484 l -15.325,0 -6.439,-25.221 -17.826,0 24.206,94.823 z"
         style="fill:#1b75bb;fill-opacity:1;fill-rule:nonzero;stroke:none"
         id="path44"
         inkscape:connector-curvature="0" /></g><g
       id="g46"
       transform="translate(438.4834,368.501)"><path
         d="m 0,0 37.593,0 c 3.336,0 5.901,0.537 7.698,1.612 1.797,1.076 2.997,2.795 3.601,5.16 0.603,2.366 0.274,4.097 -0.989,5.194 -1.263,1.097 -3.543,1.644 -6.836,1.644 l -15.388,0 c -9.131,0 -14.937,1.441 -17.41,4.323 -2.477,2.88 -2.776,7.998 -0.898,15.352 1.91,7.483 5.253,12.986 10.032,16.514 4.779,3.525 11.234,5.289 19.366,5.289 l 38.281,0 -3.705,-14.514 -31.463,0 c -5.13,0 -8.585,-0.463 -10.362,-1.386 -1.78,-0.926 -2.971,-2.572 -3.576,-4.936 -0.548,-2.15 -0.274,-3.731 0.824,-4.74 1.096,-1.012 3.105,-1.516 6.024,-1.516 l 16.139,0 c 7.381,0 12.557,-1.774 15.53,-5.323 2.972,-3.547 3.602,-8.676 1.89,-15.384 -1.647,-6.451 -4.706,-11.697 -9.178,-15.74 -4.473,-4.042 -9.42,-6.064 -14.842,-6.064 l -46.037,0 L 0,0 z"
         style="fill:#1b75bb;fill-opacity:1;fill-rule:nonzero;stroke:none"
         id="path48"
         inkscape:connector-curvature="0" /></g><g
       id="g50"
       transform="translate(537.4443,408.5586)"><path
         d="m 0,0 -10.127,-39.671 10.884,0 c 7.214,0 12.722,1.569 16.527,4.709 3.803,3.138 6.639,8.363 8.505,15.675 1.801,7.053 1.694,12.03 -0.316,14.933 C 23.462,-1.451 19.057,0 12.26,0 L 0,0 z m -13.99,15.03 34.341,0 c 10.34,0 17.609,-3.139 21.802,-9.418 4.194,-6.279 4.858,-15.029 1.993,-26.254 -1.175,-4.602 -2.858,-8.827 -5.049,-12.675 -2.194,-3.849 -4.926,-7.366 -8.198,-10.546 -3.896,-3.828 -8.099,-6.57 -12.608,-8.225 -4.51,-1.656 -10.142,-2.484 -16.897,-2.484 l -15.325,0 -6.439,-25.221 -17.826,0 24.206,94.823 z"
         style="fill:#1b75bb;fill-opacity:1;fill-rule:nonzero;stroke:none"
         id="path52"
         inkscape:connector-curvature="0" /></g><g
       id="g54"
       transform="translate(522.5801,334.0562)"><path
         d="m 0,0 4.035,0 -1.105,-4.331 -4.035,0 L 0,0 z"
         style="fill:#b5b5b5;fill-opacity:1;fill-rule:nonzero;stroke:none"
         id="path56"
         inkscape:connector-curvature="0" /></g><g
       id="g58"
       transform="translate(533.2129,338.8442)"><path
         d="m 0,0 c -0.443,-1.736 -0.396,-3.09 0.145,-4.06 0.539,-0.97 1.515,-1.456 2.925,-1.456 1.401,0 2.623,0.486 3.67,1.456 C 7.785,-3.09 8.529,-1.736 8.973,0 9.416,1.737 9.365,3.087 8.818,4.053 8.271,5.017 7.293,5.499 5.883,5.499 4.482,5.499 3.262,5.014 2.221,4.044 1.182,3.073 0.439,1.726 0,0 M 13.879,0 C 13.146,-2.865 11.719,-5.151 9.594,-6.86 7.467,-8.569 4.971,-9.423 2.105,-9.423 c -2.865,0 -4.931,0.857 -6.201,2.571 -1.269,1.715 -1.539,3.998 -0.81,6.852 0.732,2.865 2.17,5.158 4.314,6.878 2.147,1.719 4.653,2.58 7.518,2.58 2.844,0 4.896,-0.861 6.158,-2.58 C 14.346,5.158 14.609,2.865 13.879,0"
         style="fill:#b5b5b5;fill-opacity:1;fill-rule:nonzero;stroke:none"
         id="path60"
         inkscape:connector-curvature="0" /></g><g
       id="g62"
       transform="translate(550.5977,347.98)"><path
         d="m 0,0 7.857,0 c 1.838,0 3.039,-0.341 3.604,-1.023 0.564,-0.683 0.629,-1.875 0.195,-3.579 l -0.777,-3.044 -4.463,0 0.6,2.351 c 0.181,0.711 0.179,1.187 -0.004,1.43 -0.186,0.242 -0.715,0.363 -1.59,0.363 l -1.641,0 -3.765,-14.752 -4.676,0 L 0,0 z"
         style="fill:#b5b5b5;fill-opacity:1;fill-rule:nonzero;stroke:none"
         id="path64"
         inkscape:connector-curvature="0" /></g><g
       id="g66"
       transform="translate(570.4863,333.498)"><path
         d="m 0,0 2.428,0 2.699,10.574 -2.428,0 c -1.17,0 -2.002,-0.045 -2.494,-0.136 C -0.289,10.349 -0.738,10.196 -1.143,9.981 -1.98,9.531 -2.66,8.936 -3.182,8.197 -3.705,7.458 -4.117,6.497 -4.418,5.313 -4.918,3.361 -4.848,1.988 -4.207,1.193 -3.568,0.397 -2.166,0 0,0 M 6.342,-3.113 C 5.703,-5.617 4.691,-7.455 3.309,-8.628 c -1.381,-1.173 -3.221,-1.76 -5.518,-1.76 l -9.172,0 0.947,3.706 8.368,0 c 0.896,0 1.642,0.222 2.238,0.668 0.594,0.446 1,1.091 1.215,1.937 l 0.078,0.305 -3.807,0 c -1.967,0 -3.346,0.152 -4.133,0.457 -0.785,0.304 -1.451,0.823 -1.996,1.556 -0.633,0.823 -1.017,1.85 -1.158,3.079 -0.141,1.229 -0.027,2.56 0.338,3.993 0.359,1.409 0.922,2.726 1.689,3.951 0.766,1.223 1.676,2.246 2.729,3.07 0.949,0.767 1.977,1.316 3.078,1.649 1.102,0.332 2.473,0.499 4.113,0.499 l 8.514,0 -4.49,-17.595 z"
         style="fill:#b5b5b5;fill-opacity:1;fill-rule:nonzero;stroke:none"
         id="path68"
         inkscape:connector-curvature="0" /></g><g
       id="g70"
       transform="translate(579.2695,334.0562)"><path
         d="m 0,0 4.035,0 -1.105,-4.331 -4.035,0 L 0,0 z"
         style="fill:#b5b5b5;fill-opacity:1;fill-rule:nonzero;stroke:none"
         id="path72"
         inkscape:connector-curvature="0" /></g><g
       id="g74"
       transform="translate(595.0664,344.0381)"><path
         d="m 0,0 -2.854,0 -2.656,-10.405 3.215,0 c 1.783,0 3.133,0.386 4.053,1.159 0.92,0.772 1.615,2.084 2.086,3.934 0.488,1.906 0.439,3.268 -0.147,4.085 C 3.113,-0.409 1.881,0 0,0 m -0.158,10.558 -1.69,-6.616 4.02,0 C 3.943,3.942 5.311,3.725 6.271,3.291 7.232,2.856 7.967,2.137 8.477,1.133 8.908,0.299 9.154,-0.623 9.213,-1.632 9.273,-2.642 9.148,-3.75 8.84,-4.957 8.092,-7.89 6.748,-10.182 4.805,-11.834 c -1.942,-1.652 -4.27,-2.479 -6.981,-2.479 l -9.008,0 6.35,24.871 4.676,0 z"
         style="fill:#b5b5b5;fill-opacity:1;fill-rule:nonzero;stroke:none"
         id="path76"
         inkscape:connector-curvature="0" /></g><g
       id="g78"
       transform="translate(607.3516,347.98)"><path
         d="m 0,0 7.859,0 c 1.838,0 3.039,-0.341 3.604,-1.023 0.562,-0.683 0.629,-1.875 0.193,-3.579 l -0.777,-3.044 -4.463,0 0.6,2.351 c 0.181,0.711 0.179,1.187 -0.004,1.43 -0.184,0.242 -0.713,0.363 -1.588,0.363 l -1.641,0 -3.765,-14.752 -4.676,0 L 0,0 z"
         style="fill:#b5b5b5;fill-opacity:1;fill-rule:nonzero;stroke:none"
         id="path80"
         inkscape:connector-curvature="0" /></g><g
       id="g82"
       transform="translate(208.3672,391.9346)"
       inkscape:export-filename="/home/duodraco/Dropbox/Hackaton PHPSP/favicon.png"
       inkscape:export-xdpi="90"
       inkscape:export-ydpi="90"><path
         d="m 0,0 c 0,-39.543 -32.057,-71.6 -71.599,-71.6 -39.543,0 -71.598,32.057 -71.598,71.6 0,39.542 32.055,71.597 71.598,71.597 C -32.057,71.597 0,39.542 0,0"
         style="fill:#ffffff;fill-opacity:1;fill-rule:evenodd;stroke:none"
         id="path84"
         inkscape:connector-curvature="0" /></g><g
       id="g86"
       transform="translate(208.3677,391.8335)"
       inkscape:export-filename="/home/duodraco/Dropbox/Hackaton PHPSP/favicon.png"
       inkscape:export-xdpi="90"
       inkscape:export-ydpi="90"><path
         d="m 0,0 c 0,-39.543 -32.056,-71.6 -71.599,-71.6 -39.543,0 -71.599,32.057 -71.599,71.6 0,39.542 32.056,71.599 71.599,71.599 C -32.056,71.599 0,39.542 0,0 z"
         style="fill:none;stroke:#1b75bb;stroke-width:10;stroke-linecap:butt;stroke-linejoin:miter;stroke-miterlimit:4;stroke-opacity:1;stroke-dasharray:none"
         id="path88"
         inkscape:connector-curvature="0" /></g><g
       id="g90"
       inkscape:export-filename="/home/duodraco/Dropbox/Hackaton PHPSP/favicon.png"
       inkscape:export-xdpi="90"
       inkscape:export-ydpi="90"><g
         id="g92"
         clip-path="url(#clipPath94)"><g
           id="g98"
           transform="translate(140.7305,409.4736)"><path
             d="M 0,0 -0.049,-6.946 -1.254,-6.298 -1.709,0.979 0,0 z m -0.33,12.016 0.062,-6.286 -1.146,0.625 -0.455,6.699 1.539,-1.038 z m -2.141,10.651 1.756,-1.234 0.037,-6.264 -1.381,0.896 -0.412,6.602 z m 3.412,-2.446 1.411,-1.017 -0.346,-5.801 -1.135,0.695 0.07,6.123 z m 1.77,-70.158 c 2.771,0 5.49,-0.055 8.172,-0.155 l 1.746,34.665 0,10e-4 1.568,31.112 -20.711,15.344 5.571,-81.009 c 1.214,0.023 2.431,0.042 3.654,0.042"
             style="fill:#2cb5d3;fill-opacity:1;fill-rule:nonzero;stroke:none"
             id="path100" /></g><g
           id="g102"
           transform="translate(170.8027,357.7129)"><path
             d="M 0,0 9.695,35.394 -3.211,43.216 -9.924,1.112 C -6.564,0.829 -3.262,0.458 0,0"
             style="fill:#2cb5d3;fill-opacity:1;fill-rule:nonzero;stroke:none"
             id="path104" /></g><g
           id="g106"
           transform="translate(100.6201,395.4395)"><path
             d="M 0,0 3.53,-1.34 5.006,-7.039 2.396,-6.891 0,0 z m 27.675,-36.496 -6.816,34.289 -9.28,3.423 -16.79,6.193 16.827,-45.819 c 5.249,0.857 10.611,1.493 16.059,1.914"
             style="fill:#2cb5d3;fill-opacity:1;fill-rule:nonzero;stroke:none"
             id="path108" /></g><g
           id="g110"
           transform="translate(104.1499,394.0996)"><path
             d="M 0,0 -3.53,1.34 -1.134,-5.551 1.476,-5.699 0,0 z"
             style="fill:#ffffff;fill-opacity:1;fill-rule:nonzero;stroke:none"
             id="path112" /></g><g
           id="g114"
           transform="translate(140.0156,430.9063)"><path
             d="M 0,0 -1.756,1.234 -1.344,-5.367 0.037,-6.263 0,0 z"
             style="fill:#ffffff;fill-opacity:1;fill-rule:nonzero;stroke:none"
             id="path116" /></g><g
           id="g118"
           transform="translate(140.4629,415.2036)"><path
             d="M 0,0 -0.063,6.286 -1.602,7.324 -1.146,0.625 0,0 z"
             style="fill:#ffffff;fill-opacity:1;fill-rule:nonzero;stroke:none"
             id="path120" /></g><g
           id="g122"
           transform="translate(140.6816,402.5273)"><path
             d="M 0,0 0.049,6.946 -1.66,7.925 -1.205,0.648 0,0 z"
             style="fill:#ffffff;fill-opacity:1;fill-rule:nonzero;stroke:none"
             id="path124" /></g><g
           id="g126"
           transform="translate(143.082,428.6772)"><path
             d="M 0,0 -1.41,1.017 -1.48,-5.105 -0.346,-5.8 0,0 z"
             style="fill:#ffffff;fill-opacity:1;fill-rule:nonzero;stroke:none"
             id="path128" /></g><g
           id="g130"
           transform="translate(199.0195,353.9287)"><path
             d="M 0,0 0.953,1.681 C -0.547,1.739 -0.32,0.898 0,0"
             style="fill:#1b75bb;fill-opacity:1;fill-rule:nonzero;stroke:none"
             id="path132" /></g><g
           id="g134"
           transform="translate(170.8027,357.7129)"><path
             d="m 0,0 c -3.262,0.458 -6.564,0.829 -9.924,1.112 l 6.713,42.104 -14.232,-6.881 0,-10e-4 -1.746,-34.665 c -2.682,0.1 -5.401,0.155 -8.172,0.155 -1.223,0 -2.44,-0.019 -3.655,-0.042 l -5.57,81.009 -28.16,-20.808 6.142,-23.041 9.281,-3.422 6.815,-34.29 C -47.956,0.81 -53.317,0.174 -58.566,-0.684 l -16.828,45.82 -12.871,-9.392 19.352,-38.433 c -9.196,-2.047 -18.01,-4.746 -26.324,-8.041 l 1.449,-3.62 c 20.453,5.946 42.891,9.231 66.427,9.231 17.759,0 32.017,-1.272 48.146,-4.744 9.451,-2.035 -6.383,0.099 2.301,-2.983 l 3.98,7.028 c -0.675,0.052 -1.625,0.246 -2.955,0.634 C 16.182,-2.868 8.221,-1.155 0,0"
             style="fill:#1b75bb;fill-opacity:1;fill-rule:nonzero;stroke:none"
             id="path136" /></g><g
           id="g138"
           transform="translate(197.8691,351.8945)"><path
             d="M 0,0 C 2.033,-0.16 1.529,0.976 1.15,2.034 L 0,0 z"
             style="fill:#1b75bb;fill-opacity:1;fill-rule:nonzero;stroke:none"
             id="path140" /></g></g></g><g
       id="g142"><g
         id="g144"
         clip-path="url(#clipPath146)"><g
           id="g150"
           transform="translate(121.2939,265.9336)"><path
             d="m 0,0 -5.183,-20.304 5.57,0 c 3.693,0 6.512,0.804 8.458,2.41 1.947,1.606 3.399,4.281 4.354,8.022 0.921,3.61 0.867,6.157 -0.162,7.643 C 12.007,-0.743 9.753,0 6.274,0 L 0,0 z m -7.161,7.692 17.576,0 c 5.293,0 9.012,-1.607 11.159,-4.82 2.145,-3.213 2.487,-7.692 1.02,-13.436 -0.601,-2.356 -1.463,-4.519 -2.585,-6.488 -1.122,-1.969 -2.521,-3.769 -4.195,-5.398 -1.995,-1.959 -4.146,-3.363 -6.453,-4.21 -2.308,-0.846 -5.191,-1.27 -8.649,-1.27 l -7.842,0 -3.295,-12.908 -9.124,0 12.388,48.53 z"
             style="fill:#1b75bb;fill-opacity:1;fill-rule:nonzero;stroke:none"
             id="path152" /></g><g
           id="g154"
           transform="translate(154.1357,286.5337)"><path
             d="m 0,0 9.061,0 -3.296,-12.908 8.099,0 c 5.08,0 8.493,-1.029 10.241,-3.087 1.747,-2.058 2.037,-5.376 0.868,-9.954 l -5.765,-22.581 -9.187,0 5.487,21.492 c 0.623,2.443 0.615,4.105 -0.025,4.985 -0.639,0.88 -2.122,1.321 -4.448,1.321 l -7.267,0 -7.097,-27.798 -9.06,0 L 0,0 z"
             style="fill:#1b75bb;fill-opacity:1;fill-rule:nonzero;stroke:none"
             id="path156" /></g><g
           id="g158"
           transform="translate(194.2598,265.9336)"><path
             d="m 0,0 -5.183,-20.304 5.57,0 c 3.693,0 6.512,0.804 8.458,2.41 1.947,1.606 3.399,4.281 4.354,8.022 0.921,3.61 0.867,6.157 -0.162,7.643 C 12.007,-0.743 9.753,0 6.274,0 L 0,0 z m -7.161,7.692 17.576,0 c 5.293,0 9.012,-1.607 11.159,-4.82 2.145,-3.213 2.487,-7.692 1.02,-13.436 -0.601,-2.356 -1.463,-4.519 -2.585,-6.488 -1.122,-1.969 -2.521,-3.769 -4.195,-5.398 -1.995,-1.959 -4.146,-3.363 -6.453,-4.21 -2.308,-0.846 -5.191,-1.27 -8.649,-1.27 l -7.842,0 -3.295,-12.908 -9.124,0 12.388,48.53 z"
             style="fill:#1b75bb;fill-opacity:1;fill-rule:nonzero;stroke:none"
             id="path160" /></g><g
           id="g162"
           transform="translate(216.0649,245.4312)"><path
             d="m 0,0 19.24,0 c 1.707,0 3.021,0.275 3.941,0.826 0.919,0.55 1.533,1.43 1.842,2.641 0.31,1.21 0.14,2.097 -0.505,2.658 -0.647,0.561 -1.814,0.841 -3.499,0.841 l -7.875,0 c -4.675,0 -7.645,0.737 -8.913,2.212 -1.267,1.474 -1.419,4.094 -0.459,7.858 0.978,3.829 2.69,6.647 5.136,8.451 2.445,1.805 5.748,2.707 9.91,2.707 l 19.593,0 -1.896,-7.427 -16.103,0 c -2.625,0 -4.394,-0.238 -5.304,-0.71 -0.911,-0.474 -1.52,-1.316 -1.829,-2.526 -0.281,-1.101 -0.141,-1.91 0.42,-2.427 0.562,-0.517 1.591,-0.775 3.085,-0.775 l 8.258,0 c 3.779,0 6.428,-0.908 7.95,-2.724 1.521,-1.815 1.843,-4.44 0.966,-7.874 -0.843,-3.301 -2.408,-5.987 -4.697,-8.055 -2.289,-2.07 -4.822,-3.103 -7.595,-3.103 l -23.562,0 L 0,0 z"
             style="fill:#1b75bb;fill-opacity:1;fill-rule:nonzero;stroke:none"
             id="path164" /></g><g
           id="g166"
           transform="translate(266.7139,265.9336)"><path
             d="m 0,0 -5.183,-20.304 5.57,0 c 3.693,0 6.512,0.804 8.458,2.41 1.947,1.606 3.399,4.281 4.354,8.022 0.921,3.61 0.867,6.157 -0.162,7.643 C 12.007,-0.743 9.753,0 6.274,0 L 0,0 z m -7.161,7.692 17.576,0 c 5.293,0 9.012,-1.607 11.159,-4.82 2.145,-3.213 2.487,-7.692 1.02,-13.436 -0.601,-2.356 -1.463,-4.519 -2.585,-6.488 -1.122,-1.969 -2.521,-3.769 -4.195,-5.398 -1.995,-1.959 -4.146,-3.363 -6.453,-4.21 -2.308,-0.846 -5.191,-1.27 -8.649,-1.27 l -7.842,0 -3.295,-12.908 -9.124,0 12.388,48.53 z"
             style="fill:#1b75bb;fill-opacity:1;fill-rule:nonzero;stroke:none"
             id="path168" /></g><g
           id="g170"
           transform="translate(259.1045,227.8027)"><path
             d="M 0,0 2.065,0 1.5,-2.217 l -2.065,0 L 0,0 z"
             style="fill:#b5b5b5;fill-opacity:1;fill-rule:nonzero;stroke:none"
             id="path172" /></g><g
           id="g174"
           transform="translate(264.5459,230.252)"><path
             d="m 0,0 c -0.227,-0.889 -0.202,-1.581 0.074,-2.078 0.277,-0.496 0.776,-0.744 1.498,-0.744 0.716,0 1.342,0.248 1.878,0.744 C 3.984,-1.581 4.366,-0.889 4.593,0 4.819,0.89 4.794,1.58 4.514,2.074 4.233,2.568 3.732,2.814 3.011,2.814 2.294,2.814 1.67,2.566 1.138,2.069 0.604,1.574 0.226,0.884 0,0 M 7.104,0 C 6.729,-1.466 5.998,-2.636 4.91,-3.51 3.821,-4.386 2.544,-4.822 1.078,-4.822 c -1.467,0 -2.524,0.438 -3.174,1.315 -0.649,0.878 -0.788,2.047 -0.415,3.507 0.374,1.467 1.112,2.641 2.209,3.521 1.098,0.88 2.38,1.32 3.847,1.32 C 5,4.841 6.051,4.401 6.696,3.521 7.342,2.641 7.478,1.467 7.104,0"
             style="fill:#b5b5b5;fill-opacity:1;fill-rule:nonzero;stroke:none"
             id="path176" /></g><g
           id="g178"
           transform="translate(273.4453,234.9287)"><path
             d="m 0,0 4.021,0 c 0.941,0 1.555,-0.176 1.844,-0.524 0.289,-0.35 0.322,-0.96 0.1,-1.831 l -0.399,-1.559 -2.283,0 0.308,1.204 c 0.093,0.363 0.092,0.607 -0.003,0.731 -0.095,0.125 -0.365,0.187 -0.813,0.187 l -0.839,0 -1.928,-7.551 -2.393,0 L 0,0 z"
             style="fill:#b5b5b5;fill-opacity:1;fill-rule:nonzero;stroke:none"
             id="path180" /></g><g
           id="g182"
           transform="translate(283.624,227.5166)"><path
             d="m 0,0 1.242,0 1.381,5.411 -1.242,0 C 0.781,5.411 0.355,5.389 0.104,5.343 -0.149,5.296 -0.379,5.219 -0.586,5.108 -1.014,4.878 -1.362,4.573 -1.63,4.194 -1.896,3.817 -2.107,3.325 -2.263,2.719 -2.518,1.721 -2.48,1.018 -2.154,0.61 -1.827,0.203 -1.108,0 0,0 M 3.245,-1.594 C 2.918,-2.875 2.4,-3.816 1.692,-4.416 c -0.707,-0.601 -1.648,-0.9 -2.823,-0.9 l -4.694,0 0.484,1.895 4.282,0 c 0.459,0 0.84,0.115 1.146,0.342 0.305,0.229 0.512,0.559 0.622,0.992 l 0.04,0.156 -1.948,0 c -1.007,0 -1.713,0.077 -2.115,0.234 -0.402,0.156 -0.744,0.421 -1.023,0.797 -0.323,0.421 -0.52,0.946 -0.593,1.575 -0.071,0.629 -0.013,1.31 0.173,2.044 0.185,0.721 0.473,1.395 0.865,2.021 0.393,0.627 0.858,1.151 1.397,1.573 0.486,0.392 1.012,0.673 1.575,0.843 0.565,0.17 1.267,0.256 2.106,0.256 l 4.358,0 -2.299,-9.006 z"
             style="fill:#b5b5b5;fill-opacity:1;fill-rule:nonzero;stroke:none"
             id="path184" /></g><g
           id="g186"
           transform="translate(288.1172,227.8027)"><path
             d="M 0,0 2.065,0 1.5,-2.217 l -2.065,0 L 0,0 z"
             style="fill:#b5b5b5;fill-opacity:1;fill-rule:nonzero;stroke:none"
             id="path188" /></g><g
           id="g190"
           transform="translate(296.2031,232.9111)"><path
             d="m 0,0 -1.461,0 -1.359,-5.325 1.645,0 c 0.913,0 1.604,0.197 2.074,0.593 0.471,0.395 0.828,1.066 1.069,2.012 0.249,0.976 0.223,1.673 -0.075,2.092 C 1.594,-0.209 0.963,0 0,0 m -0.082,5.403 -0.864,-3.385 2.057,0 C 2.018,2.018 2.717,1.905 3.209,1.685 3.701,1.462 4.077,1.094 4.338,0.58 4.56,0.152 4.686,-0.319 4.715,-0.836 4.745,-1.353 4.683,-1.92 4.525,-2.537 4.142,-4.038 3.452,-5.212 2.459,-6.057 1.465,-6.902 0.274,-7.325 -1.114,-7.325 l -4.61,0 3.249,12.728 2.393,0 z"
             style="fill:#b5b5b5;fill-opacity:1;fill-rule:nonzero;stroke:none"
             id="path192" /></g><g
           id="g194"
           transform="translate(302.4912,234.9287)"><path
             d="m 0,0 4.021,0 c 0.941,0 1.555,-0.176 1.844,-0.524 0.289,-0.35 0.322,-0.96 0.1,-1.831 l -0.399,-1.559 -2.283,0 0.308,1.204 c 0.093,0.363 0.092,0.607 -0.003,0.731 -0.095,0.125 -0.365,0.187 -0.813,0.187 l -0.839,0 -1.928,-7.551 -2.393,0 L 0,0 z"
             style="fill:#b5b5b5;fill-opacity:1;fill-rule:nonzero;stroke:none"
             id="path196" /></g><g
           id="g198"
           transform="translate(98.291,257.4243)"><path
             d="m 0,0 c 0,-20.238 -16.406,-36.645 -36.644,-36.645 -20.238,0 -36.644,16.407 -36.644,36.645 0,20.237 16.406,36.643 36.644,36.643 C -16.406,36.643 0,20.237 0,0"
             style="fill:#ffffff;fill-opacity:1;fill-rule:evenodd;stroke:none"
             id="path200" /></g><g
           id="g202"
           transform="translate(98.2915,257.3726)"><path
             d="m 0,0 c 0,-20.238 -16.406,-36.645 -36.644,-36.645 -20.238,0 -36.645,16.407 -36.645,36.645 0,20.238 16.407,36.644 36.645,36.644 C -16.406,36.644 0,20.238 0,0 z"
             style="fill:none;stroke:#1b75bb;stroke-opacity:1;stroke-width:5;stroke-linecap:butt;stroke-linejoin:miter;stroke-miterlimit:4;stroke-dasharray:none"
             id="path204" /></g></g></g><g
       id="g206"><g
         id="g208"
         clip-path="url(#clipPath210)"><g
           id="g214"
           transform="translate(63.6748,266.4009)"><path
             d="M 0,0 -0.025,-3.555 -0.642,-3.224 -0.875,0.501 0,0 z m -0.169,6.149 0.032,-3.217 -0.587,0.32 -0.233,3.429 0.788,-0.532 z m -1.096,5.452 0.899,-0.632 0.019,-3.205 -0.707,0.458 -0.211,3.379 z M 0.482,10.349 1.204,9.828 1.026,6.86 0.446,7.215 0.482,10.349 z m 0.905,-35.907 c 1.419,0 2.81,-0.028 4.183,-0.079 l 0.893,17.741 0,0.001 0.803,15.923 -10.599,7.853 2.85,-41.46 c 0.622,0.011 1.245,0.021 1.87,0.021"
             style="fill:#2cb5d3;fill-opacity:1;fill-rule:nonzero;stroke:none"
             id="path216" /></g><g
           id="g218"
           transform="translate(79.0659,239.9092)"><path
             d="M 0,0 4.962,18.115 -1.644,22.118 -5.079,0.57 C -3.36,0.425 -1.669,0.235 0,0"
             style="fill:#2cb5d3;fill-opacity:1;fill-rule:nonzero;stroke:none"
             id="path220" /></g><g
           id="g222"
           transform="translate(43.1465,259.2178)"><path
             d="M 0,0 1.806,-0.686 2.562,-3.603 1.226,-3.527 0,0 z m 14.164,-18.679 -3.488,17.55 -4.75,1.752 -8.593,3.169 8.612,-23.45 c 2.686,0.438 5.43,0.764 8.219,0.979"
             style="fill:#2cb5d3;fill-opacity:1;fill-rule:nonzero;stroke:none"
             id="path224" /></g><g
           id="g226"
           transform="translate(44.9526,258.5322)"><path
             d="M 0,0 -1.806,0.686 -0.58,-2.841 0.756,-2.917 0,0 z"
             style="fill:#ffffff;fill-opacity:1;fill-rule:nonzero;stroke:none"
             id="path228" /></g><g
           id="g230"
           transform="translate(63.3091,277.3701)"><path
             d="M 0,0 -0.899,0.631 -0.688,-2.747 0.019,-3.206 0,0 z"
             style="fill:#ffffff;fill-opacity:1;fill-rule:nonzero;stroke:none"
             id="path232" /></g><g
           id="g234"
           transform="translate(63.5381,269.333)"><path
             d="M 0,0 -0.032,3.217 -0.82,3.749 -0.587,0.32 0,0 z"
             style="fill:#ffffff;fill-opacity:1;fill-rule:nonzero;stroke:none"
             id="path236" /></g><g
           id="g238"
           transform="translate(63.6499,262.8457)"><path
             d="M 0,0 0.025,3.555 -0.85,4.056 -0.617,0.332 0,0 z"
             style="fill:#ffffff;fill-opacity:1;fill-rule:nonzero;stroke:none"
             id="path240" /></g><g
           id="g242"
           transform="translate(64.8784,276.229)"><path
             d="M 0,0 -0.722,0.521 -0.758,-2.613 -0.177,-2.968 0,0 z"
             style="fill:#ffffff;fill-opacity:1;fill-rule:nonzero;stroke:none"
             id="path244" /></g><g
           id="g246"
           transform="translate(93.5073,237.9727)"><path
             d="M 0,0 0.488,0.859 C -0.28,0.891 -0.164,0.46 0,0"
             style="fill:#1b75bb;fill-opacity:1;fill-rule:nonzero;stroke:none"
             id="path248" /></g><g
           id="g250"
           transform="translate(79.0659,239.9092)"><path
             d="m 0,0 c -1.669,0.235 -3.36,0.425 -5.079,0.57 l 3.435,21.548 -7.284,-3.521 0,-0.001 -0.893,-17.741 c -1.373,0.051 -2.764,0.079 -4.183,0.079 -0.625,0 -1.248,-0.01 -1.87,-0.021 l -2.851,41.46 -14.412,-10.65 3.144,-11.792 4.749,-1.752 3.488,-17.549 c -2.788,-0.215 -5.532,-0.541 -8.219,-0.98 l -8.612,23.451 -6.587,-4.807 9.904,-19.67 c -4.707,-1.048 -9.217,-2.428 -13.473,-4.115 l 0.742,-1.854 c 10.468,3.043 21.952,4.725 33.997,4.725 9.09,0 16.387,-0.651 24.642,-2.428 4.837,-1.041 -3.267,0.051 1.177,-1.526 l 2.038,3.596 C 13.506,-2.95 13.021,-2.852 12.34,-2.653 8.282,-1.468 4.207,-0.591 0,0"
             style="fill:#1b75bb;fill-opacity:1;fill-rule:nonzero;stroke:none"
             id="path252" /></g><g
           id="g254"
           transform="translate(92.9185,236.9316)"><path
             d="M 0,0 C 1.041,-0.082 0.783,0.5 0.589,1.041 L 0,0 z"
             style="fill:#1b75bb;fill-opacity:1;fill-rule:nonzero;stroke:none"
             id="path256" /></g></g></g><g
       id="g258"><g
         id="g260"
         clip-path="url(#clipPath262)"><g
           id="g266"
           transform="translate(434.0254,265.9087)"><path
             d="m 0,0 -5.183,-20.304 5.571,0 c 3.692,0 6.511,0.804 8.458,2.41 1.947,1.606 3.398,4.281 4.353,8.022 0.922,3.61 0.867,6.157 -0.162,7.643 C 12.008,-0.743 9.754,0 6.275,0 L 0,0 z m -7.16,7.692 17.575,0 c 5.293,0 9.013,-1.607 11.159,-4.82 2.146,-3.213 2.487,-7.692 1.021,-13.436 -0.602,-2.356 -1.463,-4.519 -2.585,-6.488 -1.122,-1.969 -2.522,-3.769 -4.196,-5.398 -1.994,-1.959 -4.145,-3.363 -6.453,-4.21 -2.307,-0.846 -5.19,-1.27 -8.648,-1.27 l -7.843,0 -3.295,-12.908 -9.124,0 12.389,48.53 z"
             style="fill:#1b75bb;fill-opacity:1;fill-rule:nonzero;stroke:none"
             id="path268" /></g><g
           id="g270"
           transform="translate(466.8672,286.5088)"><path
             d="m 0,0 9.061,0 -3.295,-12.908 8.098,0 c 5.08,0 8.493,-1.029 10.241,-3.087 1.748,-2.058 2.038,-5.376 0.869,-9.954 l -5.765,-22.581 -9.188,0 5.487,21.492 c 0.624,2.443 0.615,4.105 -0.024,4.985 -0.64,0.88 -2.123,1.321 -4.449,1.321 l -7.266,0 -7.097,-27.798 -9.061,0 L 0,0 z"
             style="fill:#1b75bb;fill-opacity:1;fill-rule:nonzero;stroke:none"
             id="path272" /></g><g
           id="g274"
           transform="translate(506.9922,265.9087)"><path
             d="m 0,0 -5.184,-20.304 5.571,0 c 3.692,0 6.511,0.804 8.458,2.41 1.946,1.606 3.398,4.281 4.353,8.022 0.921,3.61 0.868,6.157 -0.162,7.643 C 12.007,-0.743 9.752,0 6.273,0 L 0,0 z m -7.161,7.692 17.575,0 c 5.293,0 9.013,-1.607 11.159,-4.82 2.146,-3.213 2.488,-7.692 1.021,-13.436 -0.602,-2.356 -1.463,-4.519 -2.585,-6.488 -1.122,-1.969 -2.521,-3.769 -4.196,-5.398 -1.995,-1.959 -4.145,-3.363 -6.452,-4.21 -2.308,-0.846 -5.191,-1.27 -8.649,-1.27 l -7.843,0 -3.295,-12.908 -9.124,0 12.389,48.53 z"
             style="fill:#1b75bb;fill-opacity:1;fill-rule:nonzero;stroke:none"
             id="path276" /></g><g
           id="g278"
           transform="translate(528.7969,245.4063)"><path
             d="m 0,0 19.24,0 c 1.707,0 3.021,0.275 3.941,0.826 0.919,0.55 1.534,1.43 1.842,2.641 0.309,1.21 0.14,2.097 -0.505,2.658 -0.647,0.561 -1.814,0.841 -3.499,0.841 l -7.875,0 c -4.675,0 -7.646,0.737 -8.913,2.212 -1.266,1.474 -1.418,4.094 -0.459,7.858 0.978,3.829 2.69,6.647 5.136,8.451 2.445,1.805 5.748,2.707 9.91,2.707 l 19.593,0 -1.895,-7.427 -16.104,0 c -2.625,0 -4.394,-0.238 -5.304,-0.71 -0.911,-0.474 -1.52,-1.316 -1.829,-2.526 -0.281,-1.101 -0.14,-1.91 0.42,-2.427 0.562,-0.517 1.59,-0.775 3.084,-0.775 l 8.26,0 c 3.777,0 6.427,-0.908 7.949,-2.724 1.521,-1.815 1.843,-4.44 0.966,-7.874 -0.843,-3.301 -2.408,-5.987 -4.696,-8.055 -2.289,-2.07 -4.823,-3.104 -7.596,-3.104 l -23.562,0 L 0,0 z"
             style="fill:#1b75bb;fill-opacity:1;fill-rule:nonzero;stroke:none"
             id="path280" /></g><g
           id="g282"
           transform="translate(579.4453,265.9087)"><path
             d="m 0,0 -5.183,-20.304 5.571,0 c 3.692,0 6.511,0.804 8.458,2.41 1.947,1.606 3.398,4.281 4.353,8.022 0.922,3.61 0.867,6.157 -0.162,7.643 C 12.008,-0.743 9.754,0 6.275,0 L 0,0 z m -7.16,7.692 17.575,0 c 5.293,0 9.013,-1.607 11.159,-4.82 2.146,-3.213 2.487,-7.692 1.021,-13.436 -0.602,-2.356 -1.463,-4.519 -2.585,-6.488 -1.122,-1.969 -2.522,-3.769 -4.196,-5.398 -1.994,-1.959 -4.145,-3.363 -6.453,-4.21 -2.307,-0.846 -5.19,-1.27 -8.648,-1.27 l -7.843,0 -3.295,-12.908 -9.124,0 12.389,48.53 z"
             style="fill:#1b75bb;fill-opacity:1;fill-rule:nonzero;stroke:none"
             id="path284" /></g><g
           id="g286"
           transform="translate(571.8369,227.7773)"><path
             d="m 0,0 2.065,0 -0.566,-2.217 -2.065,0 L 0,0 z"
             style="fill:#b5b5b5;fill-opacity:1;fill-rule:nonzero;stroke:none"
             id="path288" /></g><g
           id="g290"
           transform="translate(577.2773,230.2275)"><path
             d="m 0,0 c -0.227,-0.889 -0.201,-1.581 0.074,-2.078 0.277,-0.497 0.776,-0.745 1.498,-0.745 0.716,0 1.342,0.248 1.878,0.745 C 3.985,-1.581 4.366,-0.889 4.593,0 4.82,0.89 4.794,1.58 4.514,2.074 4.233,2.567 3.733,2.813 3.012,2.813 2.295,2.813 1.67,2.565 1.138,2.069 0.604,1.573 0.226,0.884 0,0 M 7.104,0 C 6.729,-1.466 5.998,-2.637 4.91,-3.511 3.822,-4.386 2.544,-4.823 1.078,-4.823 c -1.467,0 -2.524,0.439 -3.174,1.316 C -2.744,-2.63 -2.884,-1.46 -2.511,0 -2.137,1.467 -1.399,2.64 -0.302,3.52 0.796,4.4 2.079,4.841 3.546,4.841 5.001,4.841 6.051,4.4 6.696,3.52 7.342,2.64 7.478,1.467 7.104,0"
             style="fill:#b5b5b5;fill-opacity:1;fill-rule:nonzero;stroke:none"
             id="path292" /></g><g
           id="g294"
           transform="translate(586.1768,234.9033)"><path
             d="m 0,0 4.021,0 c 0.941,0 1.556,-0.175 1.844,-0.524 0.289,-0.349 0.323,-0.959 0.1,-1.83 l -0.399,-1.559 -2.283,0 0.308,1.203 c 0.093,0.363 0.092,0.607 -0.003,0.731 -0.094,0.125 -0.365,0.187 -0.813,0.187 l -0.839,0 -1.928,-7.551 -2.393,0 L 0,0 z"
             style="fill:#b5b5b5;fill-opacity:1;fill-rule:nonzero;stroke:none"
             id="path296" /></g><g
           id="g298"
           transform="translate(596.3555,227.4922)"><path
             d="m 0,0 1.242,0 1.382,5.411 -1.242,0 C 0.782,5.411 0.356,5.389 0.104,5.342 -0.149,5.296 -0.379,5.218 -0.586,5.108 -1.014,4.877 -1.362,4.572 -1.63,4.194 -1.896,3.816 -2.107,3.324 -2.262,2.718 -2.517,1.72 -2.48,1.017 -2.153,0.61 -1.827,0.203 -1.108,0 0,0 M 3.245,-1.594 C 2.919,-2.875 2.4,-3.816 1.693,-4.416 0.986,-5.018 0.044,-5.317 -1.131,-5.317 l -4.694,0 0.484,1.896 4.282,0 c 0.459,0 0.841,0.114 1.146,0.342 0.305,0.228 0.512,0.558 0.622,0.991 l 0.04,0.156 -1.948,0 c -1.007,0 -1.713,0.078 -2.115,0.234 -0.402,0.156 -0.744,0.422 -1.022,0.797 -0.323,0.421 -0.521,0.946 -0.594,1.575 -0.071,0.63 -0.013,1.31 0.174,2.044 0.184,0.722 0.472,1.395 0.864,2.022 0.393,0.626 0.859,1.15 1.397,1.572 0.487,0.392 1.012,0.673 1.576,0.844 0.564,0.17 1.266,0.255 2.105,0.255 l 4.358,0 -2.299,-9.005 z"
             style="fill:#b5b5b5;fill-opacity:1;fill-rule:nonzero;stroke:none"
             id="path300" /></g><g
           id="g302"
           transform="translate(600.8496,227.7773)"><path
             d="m 0,0 2.065,0 -0.566,-2.217 -2.065,0 L 0,0 z"
             style="fill:#b5b5b5;fill-opacity:1;fill-rule:nonzero;stroke:none"
             id="path304" /></g><g
           id="g306"
           transform="translate(608.9346,232.8857)"><path
             d="m 0,0 -1.461,0 -1.359,-5.325 1.645,0 c 0.913,0 1.605,0.198 2.074,0.594 0.472,0.395 0.828,1.066 1.069,2.012 0.249,0.976 0.224,1.673 -0.075,2.091 C 1.594,-0.209 0.963,0 0,0 m -0.082,5.403 -0.864,-3.385 2.057,0 C 2.018,2.018 2.717,1.906 3.209,1.685 3.701,1.462 4.077,1.095 4.339,0.58 4.56,0.152 4.686,-0.318 4.716,-0.835 4.746,-1.352 4.683,-1.92 4.525,-2.536 4.142,-4.038 3.453,-5.211 2.459,-6.057 1.466,-6.902 0.274,-7.325 -1.114,-7.325 l -4.61,0 3.249,12.728 2.393,0 z"
             style="fill:#b5b5b5;fill-opacity:1;fill-rule:nonzero;stroke:none"
             id="path308" /></g><g
           id="g310"
           transform="translate(615.2227,234.9033)"><path
             d="m 0,0 4.021,0 c 0.941,0 1.556,-0.175 1.844,-0.524 0.289,-0.349 0.323,-0.959 0.1,-1.83 l -0.399,-1.559 -2.283,0 0.308,1.203 c 0.093,0.363 0.092,0.607 -0.003,0.731 -0.094,0.125 -0.365,0.187 -0.813,0.187 l -0.839,0 -1.928,-7.551 -2.393,0 L 0,0 z"
             style="fill:#b5b5b5;fill-opacity:1;fill-rule:nonzero;stroke:none"
             id="path312" /></g></g></g><g
       id="g314"><g
         id="g316"><g
           id="g322"><g
             id="g324"><path
               d="m 337.734,257.399 c 0,-20.237 16.407,-36.645 36.645,-36.645 l 0,0 c 20.239,0 36.645,16.408 36.645,36.645 l 0,0 c 0,20.238 -16.406,36.644 -36.645,36.644 l 0,0 c -20.238,0 -36.645,-16.406 -36.645,-36.644"
               style="fill:url(#radialGradient326);stroke:none"
               id="path334" /></g></g></g></g><g
       id="g336"><g
         id="g338"
         clip-path="url(#clipPath340)"><g
           id="g344"
           transform="translate(411.0234,257.3477)"><path
             d="m 0,0 c 0,-20.238 -16.406,-36.645 -36.645,-36.645 -20.238,0 -36.644,16.407 -36.644,36.645 0,20.238 16.406,36.644 36.644,36.644 C -16.406,36.644 0,20.238 0,0 z"
             style="fill:none;stroke:#1b75bb;stroke-opacity:1;stroke-width:5;stroke-linecap:butt;stroke-linejoin:miter;stroke-miterlimit:4;stroke-dasharray:none"
             id="path346" /></g></g></g><g
       id="g348"><g
         id="g350"
         clip-path="url(#clipPath352)"><g
           id="g356"
           transform="translate(376.4063,266.376)"><path
             d="M 0,0 -0.024,-3.555 -0.641,-3.224 -0.874,0.501 0,0 z m -0.168,6.149 0.031,-3.217 -0.586,0.32 -0.233,3.429 0.788,-0.532 z m -1.096,5.452 0.899,-0.632 0.019,-3.205 -0.707,0.458 -0.211,3.379 z M 0.482,10.349 1.204,9.828 1.027,6.86 0.446,7.215 0.482,10.349 z m 0.906,-35.907 c 1.419,0 2.809,-0.028 4.182,-0.079 l 0.894,17.741 0,0.001 0.803,15.923 -10.6,7.853 2.851,-41.46 c 0.622,0.011 1.244,0.021 1.87,0.021"
             style="fill:#2cb5d3;fill-opacity:1;fill-rule:nonzero;stroke:none"
             id="path358" /></g><g
           id="g360"
           transform="translate(391.7979,239.8843)"><path
             d="M 0,0 4.962,18.115 -1.644,22.118 -5.079,0.57 C -3.36,0.425 -1.669,0.235 0,0"
             style="fill:#2cb5d3;fill-opacity:1;fill-rule:nonzero;stroke:none"
             id="path362" /></g><g
           id="g364"
           transform="translate(355.8789,259.1929)"><path
             d="M 0,0 1.806,-0.686 2.562,-3.603 1.226,-3.527 0,0 z m 14.163,-18.679 -3.487,17.55 -4.75,1.752 -8.594,3.169 8.612,-23.45 c 2.687,0.438 5.431,0.764 8.219,0.979"
             style="fill:#2cb5d3;fill-opacity:1;fill-rule:nonzero;stroke:none"
             id="path366" /></g><g
           id="g368"
           transform="translate(357.6846,258.5073)"><path
             d="M 0,0 -1.806,0.686 -0.58,-2.841 0.756,-2.917 0,0 z"
             style="fill:#ffffff;fill-opacity:1;fill-rule:nonzero;stroke:none"
             id="path370" /></g><g
           id="g372"
           transform="translate(376.041,277.3452)"><path
             d="M 0,0 -0.898,0.631 -0.688,-2.747 0.02,-3.206 0,0 z"
             style="fill:#ffffff;fill-opacity:1;fill-rule:nonzero;stroke:none"
             id="path374" /></g><g
           id="g376"
           transform="translate(376.2695,269.3081)"><path
             d="M 0,0 -0.031,3.217 -0.819,3.749 -0.586,0.32 0,0 z"
             style="fill:#ffffff;fill-opacity:1;fill-rule:nonzero;stroke:none"
             id="path378" /></g><g
           id="g380"
           transform="translate(376.3818,262.8208)"><path
             d="M 0,0 0.024,3.555 -0.85,4.056 -0.616,0.332 0,0 z"
             style="fill:#ffffff;fill-opacity:1;fill-rule:nonzero;stroke:none"
             id="path382" /></g><g
           id="g384"
           transform="translate(377.6104,276.2041)"><path
             d="M 0,0 -0.722,0.521 -0.758,-2.613 -0.177,-2.968 0,0 z"
             style="fill:#ffffff;fill-opacity:1;fill-rule:nonzero;stroke:none"
             id="path386" /></g><g
           id="g388"
           transform="translate(406.2393,237.9473)"><path
             d="M 0,0 0.487,0.859 C -0.28,0.891 -0.164,0.461 0,0"
             style="fill:#1b75bb;fill-opacity:1;fill-rule:nonzero;stroke:none"
             id="path390" /></g><g
           id="g392"
           transform="translate(391.7979,239.8843)"><path
             d="m 0,0 c -1.669,0.235 -3.36,0.425 -5.079,0.57 l 3.435,21.548 -7.284,-3.521 0,-0.001 -0.893,-17.741 c -1.373,0.051 -2.764,0.079 -4.183,0.079 -0.626,0 -1.248,-0.01 -1.87,-0.021 l -2.851,41.46 -14.412,-10.65 3.144,-11.792 4.75,-1.752 3.487,-17.549 c -2.788,-0.215 -5.532,-0.541 -8.219,-0.98 l -8.612,23.451 -6.588,-4.807 9.905,-19.67 c -4.707,-1.047 -9.217,-2.428 -13.473,-4.116 l 0.742,-1.853 c 10.469,3.043 21.951,4.724 33.997,4.724 9.09,0 16.387,-0.65 24.642,-2.427 4.837,-1.041 -3.267,0.05 1.177,-1.526 l 2.038,3.596 C 13.507,-2.951 13.021,-2.851 12.34,-2.654 8.282,-1.468 4.207,-0.591 0,0"
             style="fill:#1b75bb;fill-opacity:1;fill-rule:nonzero;stroke:none"
             id="path394" /></g><g
           id="g396"
           transform="translate(405.6504,236.9063)"><path
             d="M 0,0 C 1.041,-0.082 0.783,0.5 0.589,1.041 L 0,0 z"
             style="fill:#1b75bb;fill-opacity:1;fill-rule:nonzero;stroke:none"
             id="path398" /></g></g></g><g
       id="g400"><g
         id="g402"
         clip-path="url(#clipPath404)"><g
           id="g408"
           transform="translate(120.0703,171.2949)"><path
             d="m 0,0 -5.183,-20.303 5.57,0 c 3.693,0 6.512,0.803 8.458,2.41 1.947,1.606 3.399,4.281 4.354,8.022 0.921,3.609 0.867,6.156 -0.162,7.642 C 12.007,-0.742 9.753,0 6.274,0 L 0,0 z m -7.161,7.692 17.576,0 c 5.293,0 9.012,-1.606 11.159,-4.819 2.145,-3.214 2.487,-7.692 1.02,-13.437 -0.601,-2.356 -1.463,-4.518 -2.585,-6.487 -1.122,-1.97 -2.521,-3.769 -4.195,-5.398 -1.995,-1.959 -4.146,-3.364 -6.453,-4.21 C 7.053,-27.506 4.17,-27.93 0.712,-27.93 l -7.842,0 -3.295,-12.908 -9.124,0 12.388,48.53 z"
             style="fill:#1b75bb;fill-opacity:1;fill-rule:nonzero;stroke:none"
             id="path410" /></g><g
           id="g412"
           transform="translate(152.9121,191.8955)"><path
             d="m 0,0 9.061,0 -3.296,-12.908 8.099,0 c 5.08,0 8.493,-1.029 10.241,-3.087 1.747,-2.058 2.037,-5.376 0.868,-9.953 l -5.765,-22.582 -9.187,0 5.487,21.492 c 0.623,2.443 0.615,4.105 -0.025,4.984 -0.639,0.881 -2.122,1.322 -4.448,1.322 l -7.267,0 -7.097,-27.798 -9.06,0 L 0,0 z"
             style="fill:#1b75bb;fill-opacity:1;fill-rule:nonzero;stroke:none"
             id="path414" /></g><g
           id="g416"
           transform="translate(193.0361,171.2949)"><path
             d="m 0,0 -5.183,-20.303 5.57,0 c 3.693,0 6.512,0.803 8.458,2.41 1.947,1.606 3.399,4.281 4.354,8.022 0.921,3.609 0.867,6.156 -0.162,7.642 C 12.007,-0.742 9.753,0 6.274,0 L 0,0 z m -7.161,7.692 17.576,0 c 5.293,0 9.012,-1.606 11.159,-4.819 2.145,-3.214 2.487,-7.692 1.02,-13.437 -0.601,-2.356 -1.463,-4.518 -2.585,-6.487 -1.122,-1.97 -2.521,-3.769 -4.195,-5.398 -1.995,-1.959 -4.146,-3.364 -6.453,-4.21 C 7.053,-27.506 4.17,-27.93 0.712,-27.93 l -7.842,0 -3.295,-12.908 -9.124,0 12.388,48.53 z"
             style="fill:#1b75bb;fill-opacity:1;fill-rule:nonzero;stroke:none"
             id="path418" /></g><g
           id="g420"
           transform="translate(214.8413,150.793)"><path
             d="m 0,0 19.24,0 c 1.707,0 3.021,0.275 3.941,0.826 0.919,0.55 1.533,1.43 1.842,2.641 0.31,1.211 0.14,2.097 -0.505,2.658 -0.647,0.561 -1.814,0.842 -3.499,0.842 l -7.875,0 c -4.675,0 -7.645,0.736 -8.913,2.211 -1.267,1.474 -1.419,4.094 -0.459,7.857 0.978,3.83 2.69,6.649 5.136,8.452 2.445,1.805 5.748,2.707 9.91,2.707 l 19.593,0 -1.896,-7.427 -16.103,0 c -2.625,0 -4.394,-0.238 -5.304,-0.71 -0.911,-0.474 -1.52,-1.317 -1.829,-2.526 -0.281,-1.101 -0.141,-1.91 0.42,-2.427 0.562,-0.517 1.591,-0.776 3.085,-0.776 l 8.258,0 c 3.779,0 6.428,-0.906 7.95,-2.723 1.521,-1.816 1.843,-4.441 0.966,-7.875 -0.843,-3.3 -2.408,-5.986 -4.697,-8.054 -2.289,-2.07 -4.822,-3.104 -7.595,-3.104 l -23.562,0 L 0,0 z"
             style="fill:#1b75bb;fill-opacity:1;fill-rule:nonzero;stroke:none"
             id="path422" /></g><g
           id="g424"
           transform="translate(265.4902,171.2949)"><path
             d="m 0,0 -5.183,-20.303 5.57,0 c 3.693,0 6.512,0.803 8.458,2.41 1.947,1.606 3.399,4.281 4.354,8.022 0.921,3.609 0.867,6.156 -0.162,7.642 C 12.007,-0.742 9.753,0 6.274,0 L 0,0 z m -7.161,7.692 17.576,0 c 5.293,0 9.012,-1.606 11.159,-4.819 2.145,-3.214 2.487,-7.692 1.02,-13.437 -0.601,-2.356 -1.463,-4.518 -2.585,-6.487 -1.122,-1.97 -2.521,-3.769 -4.195,-5.398 -1.995,-1.959 -4.146,-3.364 -6.453,-4.21 C 7.053,-27.506 4.17,-27.93 0.712,-27.93 l -7.842,0 -3.295,-12.908 -9.124,0 12.388,48.53 z"
             style="fill:#1b75bb;fill-opacity:1;fill-rule:nonzero;stroke:none"
             id="path426" /></g><g
           id="g428"
           transform="translate(257.8809,133.1641)"><path
             d="M 0,0 2.065,0 1.5,-2.217 l -2.065,0 L 0,0 z"
             style="fill:#b5b5b5;fill-opacity:1;fill-rule:nonzero;stroke:none"
             id="path430" /></g><g
           id="g432"
           transform="translate(263.3223,135.6133)"><path
             d="m 0,0 c -0.227,-0.889 -0.202,-1.58 0.074,-2.078 0.277,-0.496 0.776,-0.744 1.498,-0.744 0.716,0 1.342,0.248 1.878,0.744 C 3.984,-1.58 4.366,-0.889 4.593,0 4.819,0.891 4.794,1.58 4.514,2.074 4.233,2.568 3.732,2.814 3.011,2.814 2.294,2.814 1.67,2.566 1.138,2.07 0.604,1.574 0.226,0.885 0,0 M 7.104,0 C 6.729,-1.465 5.998,-2.635 4.91,-3.51 3.821,-4.385 2.544,-4.822 1.078,-4.822 c -1.467,0 -2.524,0.439 -3.174,1.316 -0.649,0.877 -0.788,2.047 -0.415,3.506 0.374,1.467 1.112,2.641 2.209,3.521 1.098,0.881 2.38,1.321 3.847,1.321 C 5,4.842 6.051,4.402 6.696,3.521 7.342,2.641 7.478,1.467 7.104,0"
             style="fill:#b5b5b5;fill-opacity:1;fill-rule:nonzero;stroke:none"
             id="path434" /></g><g
           id="g436"
           transform="translate(272.2217,140.291)"><path
             d="m 0,0 4.021,0 c 0.941,0 1.555,-0.176 1.844,-0.525 0.289,-0.35 0.322,-0.959 0.1,-1.83 l -0.399,-1.559 -2.283,0 0.308,1.203 c 0.093,0.363 0.092,0.607 -0.003,0.732 -0.095,0.124 -0.365,0.186 -0.813,0.186 l -0.839,0 -1.928,-7.551 -2.393,0 L 0,0 z"
             style="fill:#b5b5b5;fill-opacity:1;fill-rule:nonzero;stroke:none"
             id="path438" /></g><g
           id="g440"
           transform="translate(282.4004,132.8789)"><path
             d="m 0,0 1.242,0 1.381,5.41 -1.242,0 C 0.781,5.41 0.355,5.389 0.104,5.342 -0.149,5.295 -0.379,5.219 -0.586,5.107 -1.014,4.877 -1.362,4.572 -1.63,4.193 -1.896,3.816 -2.107,3.324 -2.263,2.719 -2.518,1.721 -2.48,1.018 -2.154,0.609 -1.827,0.203 -1.108,0 0,0 M 3.245,-1.594 C 2.918,-2.875 2.4,-3.816 1.692,-4.416 c -0.707,-0.602 -1.648,-0.9 -2.823,-0.9 l -4.694,0 0.484,1.894 4.282,0 c 0.459,0 0.84,0.115 1.146,0.342 0.305,0.23 0.512,0.56 0.622,0.992 l 0.04,0.156 -1.948,0 c -1.007,0 -1.713,0.078 -2.115,0.235 -0.402,0.156 -0.744,0.42 -1.023,0.797 -0.323,0.42 -0.52,0.945 -0.593,1.574 -0.071,0.629 -0.013,1.31 0.173,2.045 0.185,0.72 0.473,1.394 0.865,2.021 0.393,0.627 0.858,1.151 1.397,1.573 0.486,0.392 1.012,0.673 1.575,0.843 0.565,0.17 1.267,0.256 2.106,0.256 l 4.358,0 -2.299,-9.006 z"
             style="fill:#b5b5b5;fill-opacity:1;fill-rule:nonzero;stroke:none"
             id="path442" /></g><g
           id="g444"
           transform="translate(286.8936,133.1641)"><path
             d="M 0,0 2.065,0 1.5,-2.217 l -2.065,0 L 0,0 z"
             style="fill:#b5b5b5;fill-opacity:1;fill-rule:nonzero;stroke:none"
             id="path446" /></g><g
           id="g448"
           transform="translate(294.9795,138.2734)"><path
             d="m 0,0 -1.461,0 -1.359,-5.326 1.645,0 c 0.913,0 1.604,0.197 2.074,0.594 0.471,0.394 0.828,1.066 1.069,2.011 0.249,0.977 0.223,1.674 -0.075,2.092 C 1.594,-0.209 0.963,0 0,0 m -0.082,5.402 -0.864,-3.384 2.057,0 C 2.018,2.018 2.717,1.904 3.209,1.684 3.701,1.461 4.077,1.094 4.338,0.58 4.56,0.152 4.686,-0.32 4.715,-0.836 4.745,-1.354 4.683,-1.92 4.525,-2.537 4.142,-4.039 3.452,-5.213 2.459,-6.057 1.465,-6.902 0.274,-7.326 -1.114,-7.326 l -4.61,0 3.249,12.728 2.393,0 z"
             style="fill:#b5b5b5;fill-opacity:1;fill-rule:nonzero;stroke:none"
             id="path450" /></g><g
           id="g452"
           transform="translate(301.2676,140.291)"><path
             d="m 0,0 4.021,0 c 0.941,0 1.555,-0.176 1.844,-0.525 0.289,-0.35 0.322,-0.959 0.1,-1.83 l -0.399,-1.559 -2.283,0 0.308,1.203 c 0.093,0.363 0.092,0.607 -0.003,0.732 -0.095,0.124 -0.365,0.186 -0.813,0.186 l -0.839,0 -1.928,-7.551 -2.393,0 L 0,0 z"
             style="fill:#b5b5b5;fill-opacity:1;fill-rule:nonzero;stroke:none"
             id="path454" /></g><g
           id="g456"
           transform="translate(97.0674,162.7861)"><path
             d="m 0,0 c 0,-20.237 -16.406,-36.646 -36.644,-36.646 -20.238,0 -36.644,16.409 -36.644,36.646 0,20.237 16.406,36.644 36.644,36.644 C -16.406,36.644 0,20.237 0,0"
             style="fill:#ffffff;fill-opacity:1;fill-rule:evenodd;stroke:none"
             id="path458" /></g><g
           id="g460"
           transform="translate(97.0679,162.7344)"><path
             d="m 0,0 c 0,-20.238 -16.406,-36.645 -36.644,-36.645 -20.238,0 -36.645,16.407 -36.645,36.645 0,20.238 16.407,36.645 36.645,36.645 C -16.406,36.645 0,20.238 0,0 z"
             style="fill:none;stroke:#1b75bb;stroke-opacity:1;stroke-width:5;stroke-linecap:butt;stroke-linejoin:miter;stroke-miterlimit:4;stroke-dasharray:none"
             id="path462" /></g></g></g><g
       id="g464"><g
         id="g466"
         clip-path="url(#clipPath468)"><g
           id="g472"
           transform="translate(62.4512,171.7627)"><path
             d="M 0,0 -0.025,-3.556 -0.642,-3.224 -0.875,0.501 0,0 z m -0.169,6.149 0.032,-3.216 -0.587,0.32 -0.233,3.428 0.788,-0.532 z m -1.096,5.452 0.899,-0.631 0.019,-3.206 -0.707,0.458 -0.211,3.379 z M 0.482,10.349 1.204,9.828 1.026,6.86 0.446,7.216 0.482,10.349 z m 0.905,-35.907 c 1.419,0 2.81,-0.028 4.183,-0.079 l 0.893,17.741 0.803,15.924 -10.599,7.853 2.85,-41.46 c 0.622,0.012 1.245,0.021 1.87,0.021"
             style="fill:#2cb5d3;fill-opacity:1;fill-rule:nonzero;stroke:none"
             id="path474" /></g><g
           id="g476"
           transform="translate(77.8423,145.2715)"><path
             d="M 0,0 4.962,18.114 -1.644,22.117 -5.079,0.569 C -3.36,0.424 -1.669,0.234 0,0"
             style="fill:#2cb5d3;fill-opacity:1;fill-rule:nonzero;stroke:none"
             id="path478" /></g><g
           id="g480"
           transform="translate(41.9229,164.5801)"><path
             d="M 0,0 1.806,-0.686 2.562,-3.604 1.226,-3.527 0,0 z m 14.164,-18.68 -3.488,17.55 -4.75,1.752 -8.593,3.169 8.612,-23.449 c 2.686,0.437 5.43,0.763 8.219,0.978"
             style="fill:#2cb5d3;fill-opacity:1;fill-rule:nonzero;stroke:none"
             id="path482" /></g><g
           id="g484"
           transform="translate(43.729,163.8945)"><path
             d="M 0,0 -1.806,0.686 -0.58,-2.842 0.756,-2.918 0,0 z"
             style="fill:#ffffff;fill-opacity:1;fill-rule:nonzero;stroke:none"
             id="path486" /></g><g
           id="g488"
           transform="translate(62.0854,182.7324)"><path
             d="M 0,0 -0.899,0.631 -0.688,-2.748 0.019,-3.206 0,0 z"
             style="fill:#ffffff;fill-opacity:1;fill-rule:nonzero;stroke:none"
             id="path490" /></g><g
           id="g492"
           transform="translate(62.3145,174.6953)"><path
             d="M 0,0 -0.032,3.217 -0.82,3.748 -0.587,0.32 0,0 z"
             style="fill:#ffffff;fill-opacity:1;fill-rule:nonzero;stroke:none"
             id="path494" /></g><g
           id="g496"
           transform="translate(62.4263,168.207)"><path
             d="M 0,0 0.025,3.556 -0.85,4.057 -0.617,0.332 0,0 z"
             style="fill:#ffffff;fill-opacity:1;fill-rule:nonzero;stroke:none"
             id="path498" /></g><g
           id="g500"
           transform="translate(63.6548,181.5908)"><path
             d="M 0,0 -0.722,0.521 -0.758,-2.612 -0.177,-2.968 0,0 z"
             style="fill:#ffffff;fill-opacity:1;fill-rule:nonzero;stroke:none"
             id="path502" /></g><g
           id="g504"
           transform="translate(92.2837,143.334)"><path
             d="M 0,0 0.488,0.859 C -0.28,0.891 -0.164,0.461 0,0"
             style="fill:#1b75bb;fill-opacity:1;fill-rule:nonzero;stroke:none"
             id="path506" /></g><g
           id="g508"
           transform="translate(77.8423,145.2715)"><path
             d="M 0,0 C -1.669,0.234 -3.36,0.424 -5.079,0.569 L -1.644,22.117 -8.928,18.596 -9.821,0.854 c -1.373,0.051 -2.764,0.08 -4.183,0.08 -0.625,0 -1.248,-0.01 -1.87,-0.022 l -2.851,41.46 -14.412,-10.649 3.144,-11.792 4.749,-1.752 3.488,-17.55 c -2.788,-0.215 -5.532,-0.541 -8.219,-0.979 l -8.612,23.45 -6.587,-4.807 9.904,-19.67 c -4.707,-1.047 -9.217,-2.428 -13.473,-4.115 l 0.742,-1.854 c 10.468,3.043 21.952,4.725 33.997,4.725 9.09,0 16.387,-0.65 24.642,-2.428 4.837,-1.041 -3.267,0.051 1.177,-1.525 l 2.038,3.595 C 13.506,-2.951 13.021,-2.852 12.34,-2.654 8.282,-1.469 4.207,-0.592 0,0"
             style="fill:#1b75bb;fill-opacity:1;fill-rule:nonzero;stroke:none"
             id="path510" /></g><g
           id="g512"
           transform="translate(91.6948,142.293)"><path
             d="M 0,0 C 1.041,-0.082 0.783,0.5 0.589,1.041 L 0,0 z"
             style="fill:#1b75bb;fill-opacity:1;fill-rule:nonzero;stroke:none"
             id="path514" /></g></g></g><g
       id="g516"><g
         id="g518"
         clip-path="url(#clipPath520)"><g
           id="g524"
           transform="translate(432.8018,171.2705)"><path
             d="m 0,0 -5.183,-20.304 5.571,0 c 3.692,0 6.511,0.803 8.458,2.41 1.947,1.606 3.398,4.282 4.353,8.022 0.922,3.61 0.867,6.157 -0.162,7.643 C 12.008,-0.743 9.754,0 6.275,0 L 0,0 z m -7.16,7.692 17.575,0 c 5.293,0 9.013,-1.607 11.159,-4.82 2.146,-3.213 2.487,-7.691 1.021,-13.436 -0.602,-2.357 -1.463,-4.519 -2.585,-6.488 -1.122,-1.969 -2.522,-3.769 -4.196,-5.398 -1.994,-1.959 -4.145,-3.363 -6.453,-4.209 -2.307,-0.848 -5.19,-1.272 -8.648,-1.272 l -7.843,0 -3.295,-12.908 -9.124,0 12.389,48.531 z"
             style="fill:#1b75bb;fill-opacity:1;fill-rule:nonzero;stroke:none"
             id="path526" /></g><g
           id="g528"
           transform="translate(465.6436,191.8711)"><path
             d="m 0,0 9.061,0 -3.295,-12.908 8.098,0 c 5.08,0 8.493,-1.03 10.241,-3.087 1.748,-2.058 2.038,-5.376 0.869,-9.954 l -5.765,-22.582 -9.188,0 5.487,21.492 c 0.624,2.443 0.615,4.105 -0.024,4.985 -0.64,0.88 -2.123,1.322 -4.449,1.322 l -7.266,0 -7.097,-27.799 -9.061,0 L 0,0 z"
             style="fill:#1b75bb;fill-opacity:1;fill-rule:nonzero;stroke:none"
             id="path530" /></g><g
           id="g532"
           transform="translate(505.7686,171.2705)"><path
             d="m 0,0 -5.184,-20.304 5.571,0 c 3.692,0 6.511,0.803 8.458,2.41 1.946,1.606 3.398,4.282 4.353,8.022 0.921,3.61 0.868,6.157 -0.162,7.643 C 12.007,-0.743 9.752,0 6.273,0 L 0,0 z m -7.161,7.692 17.575,0 c 5.293,0 9.013,-1.607 11.159,-4.82 2.146,-3.213 2.488,-7.691 1.021,-13.436 -0.602,-2.357 -1.463,-4.519 -2.585,-6.488 -1.122,-1.969 -2.521,-3.769 -4.196,-5.398 -1.995,-1.959 -4.145,-3.363 -6.452,-4.209 -2.308,-0.848 -5.191,-1.272 -8.649,-1.272 l -7.843,0 -3.295,-12.908 -9.124,0 12.389,48.531 z"
             style="fill:#1b75bb;fill-opacity:1;fill-rule:nonzero;stroke:none"
             id="path534" /></g><g
           id="g536"
           transform="translate(527.5732,150.7676)"><path
             d="m 0,0 19.24,0 c 1.707,0 3.021,0.275 3.941,0.826 0.919,0.551 1.534,1.43 1.842,2.641 0.309,1.211 0.14,2.097 -0.505,2.658 -0.647,0.562 -1.814,0.842 -3.499,0.842 l -7.875,0 c -4.675,0 -7.646,0.736 -8.913,2.212 -1.266,1.473 -1.418,4.094 -0.459,7.857 0.978,3.829 2.69,6.648 5.136,8.452 2.445,1.805 5.748,2.707 9.91,2.707 l 19.593,0 -1.895,-7.427 -16.104,0 c -2.625,0 -4.394,-0.239 -5.304,-0.71 -0.911,-0.474 -1.52,-1.317 -1.829,-2.527 -0.281,-1.1 -0.14,-1.91 0.42,-2.426 0.562,-0.517 1.59,-0.776 3.084,-0.776 l 8.26,0 c 3.777,0 6.427,-0.907 7.949,-2.724 C 34.513,9.79 34.835,7.165 33.958,3.731 33.115,0.43 31.55,-2.256 29.262,-4.324 26.973,-6.393 24.439,-7.428 21.666,-7.428 l -23.562,0 L 0,0 z"
             style="fill:#1b75bb;fill-opacity:1;fill-rule:nonzero;stroke:none"
             id="path538" /></g><g
           id="g540"
           transform="translate(578.2217,171.2705)"><path
             d="m 0,0 -5.183,-20.304 5.571,0 c 3.692,0 6.511,0.803 8.458,2.41 1.947,1.606 3.398,4.282 4.353,8.022 0.922,3.61 0.867,6.157 -0.162,7.643 C 12.008,-0.743 9.754,0 6.275,0 L 0,0 z m -7.16,7.692 17.575,0 c 5.293,0 9.013,-1.607 11.159,-4.82 2.146,-3.213 2.487,-7.691 1.021,-13.436 -0.602,-2.357 -1.463,-4.519 -2.585,-6.488 -1.122,-1.969 -2.522,-3.769 -4.196,-5.398 -1.994,-1.959 -4.145,-3.363 -6.453,-4.209 -2.307,-0.848 -5.19,-1.272 -8.648,-1.272 l -7.843,0 -3.295,-12.908 -9.124,0 12.389,48.531 z"
             style="fill:#1b75bb;fill-opacity:1;fill-rule:nonzero;stroke:none"
             id="path542" /></g><g
           id="g544"
           transform="translate(570.6133,133.1387)"><path
             d="m 0,0 2.065,0 -0.566,-2.217 -2.065,0 L 0,0 z"
             style="fill:#b5b5b5;fill-opacity:1;fill-rule:nonzero;stroke:none"
             id="path546" /></g><g
           id="g548"
           transform="translate(576.0537,135.5898)"><path
             d="m 0,0 c -0.227,-0.889 -0.201,-1.582 0.074,-2.078 0.277,-0.498 0.776,-0.746 1.498,-0.746 0.716,0 1.342,0.248 1.878,0.746 C 3.985,-1.582 4.366,-0.889 4.593,0 4.82,0.889 4.794,1.58 4.514,2.074 4.233,2.566 3.733,2.813 3.012,2.813 2.295,2.813 1.67,2.564 1.138,2.068 0.604,1.572 0.226,0.883 0,0 M 7.104,0 C 6.729,-1.467 5.998,-2.637 4.91,-3.512 3.822,-4.387 2.544,-4.824 1.078,-4.824 c -1.467,0 -2.524,0.439 -3.174,1.316 -0.648,0.877 -0.788,2.047 -0.415,3.508 0.374,1.467 1.112,2.639 2.209,3.52 C 0.796,4.4 2.079,4.84 3.546,4.84 5.001,4.84 6.051,4.4 6.696,3.52 7.342,2.639 7.478,1.467 7.104,0"
             style="fill:#b5b5b5;fill-opacity:1;fill-rule:nonzero;stroke:none"
             id="path550" /></g><g
           id="g552"
           transform="translate(584.9531,140.2656)"><path
             d="m 0,0 4.021,0 c 0.941,0 1.556,-0.176 1.844,-0.525 0.289,-0.348 0.323,-0.959 0.1,-1.83 l -0.399,-1.559 -2.283,0 0.308,1.203 c 0.093,0.363 0.092,0.607 -0.003,0.732 -0.094,0.124 -0.365,0.186 -0.813,0.186 l -0.839,0 -1.928,-7.551 -2.393,0 L 0,0 z"
             style="fill:#b5b5b5;fill-opacity:1;fill-rule:nonzero;stroke:none"
             id="path554" /></g><g
           id="g556"
           transform="translate(595.1318,132.8535)"><path
             d="m 0,0 1.242,0 1.382,5.412 -1.242,0 C 0.782,5.412 0.356,5.389 0.104,5.342 -0.149,5.297 -0.379,5.219 -0.586,5.109 -1.014,4.877 -1.362,4.572 -1.63,4.195 -1.896,3.816 -2.107,3.324 -2.262,2.719 -2.517,1.721 -2.48,1.018 -2.153,0.611 -1.827,0.203 -1.108,0 0,0 M 3.245,-1.594 C 2.919,-2.875 2.4,-3.816 1.693,-4.416 c -0.707,-0.602 -1.649,-0.9 -2.824,-0.9 l -4.694,0 0.484,1.896 4.282,0 c 0.459,0 0.841,0.113 1.146,0.342 0.305,0.228 0.512,0.558 0.622,0.99 l 0.04,0.156 -1.948,0 c -1.007,0 -1.713,0.078 -2.115,0.235 -0.402,0.156 -0.744,0.422 -1.022,0.797 -0.323,0.42 -0.521,0.945 -0.594,1.574 -0.071,0.631 -0.013,1.31 0.174,2.045 0.184,0.722 0.472,1.394 0.864,2.021 0.393,0.627 0.859,1.151 1.397,1.573 0.487,0.392 1.012,0.673 1.576,0.843 0.564,0.17 1.266,0.256 2.105,0.256 l 4.358,0 -2.299,-9.006 z"
             style="fill:#b5b5b5;fill-opacity:1;fill-rule:nonzero;stroke:none"
             id="path558" /></g><g
           id="g560"
           transform="translate(599.626,133.1387)"><path
             d="m 0,0 2.065,0 -0.566,-2.217 -2.065,0 L 0,0 z"
             style="fill:#b5b5b5;fill-opacity:1;fill-rule:nonzero;stroke:none"
             id="path562" /></g><g
           id="g564"
           transform="translate(607.7109,138.248)"><path
             d="m 0,0 -1.461,0 -1.359,-5.326 1.645,0 c 0.913,0 1.605,0.199 2.074,0.594 0.472,0.396 0.828,1.066 1.069,2.013 0.249,0.975 0.224,1.672 -0.075,2.09 C 1.594,-0.209 0.963,0 0,0 m -0.082,5.402 -0.864,-3.384 2.057,0 C 2.018,2.018 2.717,1.906 3.209,1.684 3.701,1.461 4.077,1.094 4.339,0.58 4.56,0.152 4.686,-0.318 4.716,-0.836 4.746,-1.352 4.683,-1.92 4.525,-2.537 4.142,-4.039 3.453,-5.211 2.459,-6.057 1.466,-6.902 0.274,-7.326 -1.114,-7.326 l -4.61,0 3.249,12.728 2.393,0 z"
             style="fill:#b5b5b5;fill-opacity:1;fill-rule:nonzero;stroke:none"
             id="path566" /></g><g
           id="g568"
           transform="translate(613.999,140.2656)"><path
             d="m 0,0 4.021,0 c 0.941,0 1.556,-0.176 1.844,-0.525 0.289,-0.348 0.323,-0.959 0.1,-1.83 l -0.399,-1.559 -2.283,0 0.308,1.203 c 0.093,0.363 0.092,0.607 -0.003,0.732 -0.094,0.124 -0.365,0.186 -0.813,0.186 l -0.839,0 -1.928,-7.551 -2.393,0 L 0,0 z"
             style="fill:#b5b5b5;fill-opacity:1;fill-rule:nonzero;stroke:none"
             id="path570" /></g></g></g><g
       id="g572"><g
         id="g574"><g
           id="g580"><g
             id="g582"><path
               d="m 336.511,162.761 c 0,-20.238 16.406,-36.646 36.644,-36.646 l 0,0 c 20.239,0 36.645,16.408 36.645,36.646 l 0,0 c 0,20.237 -16.406,36.643 -36.645,36.643 l 0,0 c -20.238,0 -36.644,-16.406 -36.644,-36.643"
               style="fill:url(#radialGradient584);stroke:none"
               id="path592" /></g></g></g></g><g
       id="g594"><g
         id="g596"
         clip-path="url(#clipPath598)"><g
           id="g602"
           transform="translate(409.7998,162.709)"><path
             d="m 0,0 c 0,-20.238 -16.406,-36.645 -36.645,-36.645 -20.238,0 -36.644,16.407 -36.644,36.645 0,20.238 16.406,36.645 36.644,36.645 C -16.406,36.645 0,20.238 0,0 z"
             style="fill:none;stroke:#1b75bb;stroke-opacity:1;stroke-width:5;stroke-linecap:butt;stroke-linejoin:miter;stroke-miterlimit:4;stroke-dasharray:none"
             id="path604" /></g></g></g><g
       id="g606"><g
         id="g608"
         clip-path="url(#clipPath610)"><g
           id="g614"
           transform="translate(375.1826,171.7383)"><path
             d="M 0,0 -0.024,-3.556 -0.641,-3.225 -0.874,0.5 0,0 z m -0.168,6.148 0.031,-3.216 -0.586,0.32 -0.233,3.429 0.788,-0.533 z M -1.264,11.6 -0.365,10.969 -0.346,7.764 -1.053,8.222 -1.264,11.6 z M 0.482,10.348 1.204,9.828 1.027,6.859 0.446,7.215 0.482,10.348 z m 0.906,-35.907 c 1.419,0 2.809,-0.027 4.182,-0.078 l 0.894,17.741 0,0 0.803,15.923 -10.6,7.854 2.851,-41.461 c 0.622,0.012 1.244,0.021 1.87,0.021"
             style="fill:#2cb5d3;fill-opacity:1;fill-rule:nonzero;stroke:none"
             id="path616" /></g><g
           id="g618"
           transform="translate(390.5742,145.2461)"><path
             d="M 0,0 4.962,18.115 -1.644,22.118 -5.079,0.57 C -3.36,0.425 -1.669,0.234 0,0"
             style="fill:#2cb5d3;fill-opacity:1;fill-rule:nonzero;stroke:none"
             id="path620" /></g><g
           id="g622"
           transform="translate(354.6553,164.5547)"><path
             d="M 0,0 1.806,-0.686 2.562,-3.603 1.226,-3.527 0,0 z m 14.163,-18.679 -3.487,17.55 -4.75,1.752 -8.594,3.169 8.612,-23.45 c 2.687,0.438 5.431,0.764 8.219,0.979"
             style="fill:#2cb5d3;fill-opacity:1;fill-rule:nonzero;stroke:none"
             id="path624" /></g><g
           id="g626"
           transform="translate(356.4609,163.8691)"><path
             d="M 0,0 -1.806,0.686 -0.58,-2.842 0.756,-2.917 0,0 z"
             style="fill:#ffffff;fill-opacity:1;fill-rule:nonzero;stroke:none"
             id="path628" /></g><g
           id="g630"
           transform="translate(374.8174,182.707)"><path
             d="M 0,0 -0.898,0.631 -0.688,-2.747 0.02,-3.205 0,0 z"
             style="fill:#ffffff;fill-opacity:1;fill-rule:nonzero;stroke:none"
             id="path632" /></g><g
           id="g634"
           transform="translate(375.0459,174.6699)"><path
             d="M 0,0 -0.031,3.217 -0.819,3.749 -0.586,0.32 0,0 z"
             style="fill:#ffffff;fill-opacity:1;fill-rule:nonzero;stroke:none"
             id="path636" /></g><g
           id="g638"
           transform="translate(375.1582,168.1826)"><path
             d="M 0,0 0.024,3.556 -0.85,4.056 -0.616,0.331 0,0 z"
             style="fill:#ffffff;fill-opacity:1;fill-rule:nonzero;stroke:none"
             id="path640" /></g><g
           id="g642"
           transform="translate(376.3867,181.5664)"><path
             d="M 0,0 -0.722,0.52 -0.758,-2.613 -0.177,-2.969 0,0 z"
             style="fill:#ffffff;fill-opacity:1;fill-rule:nonzero;stroke:none"
             id="path644" /></g><g
           id="g646"
           transform="translate(405.0156,143.3086)"><path
             d="M 0,0 0.487,0.859 C -0.28,0.891 -0.164,0.461 0,0"
             style="fill:#1b75bb;fill-opacity:1;fill-rule:nonzero;stroke:none"
             id="path648" /></g><g
           id="g650"
           transform="translate(390.5742,145.2461)"><path
             d="m 0,0 c -1.669,0.234 -3.36,0.425 -5.079,0.57 l 3.435,21.548 -7.284,-3.521 0,-0.001 -0.893,-17.741 c -1.373,0.051 -2.764,0.079 -4.183,0.079 -0.626,0 -1.248,-0.01 -1.87,-0.022 l -2.851,41.461 -14.412,-10.65 3.144,-11.791 4.75,-1.752 3.487,-17.55 c -2.788,-0.215 -5.532,-0.541 -8.219,-0.98 l -8.612,23.451 -6.588,-4.807 9.905,-19.671 c -4.707,-1.047 -9.217,-2.428 -13.473,-4.115 l 0.742,-1.854 c 10.469,3.043 21.951,4.725 33.997,4.725 9.09,0 16.387,-0.65 24.642,-2.428 4.837,-1.041 -3.267,0.051 1.177,-1.525 l 2.038,3.595 C 13.507,-2.951 13.021,-2.852 12.34,-2.654 8.282,-1.469 4.207,-0.591 0,0"
             style="fill:#1b75bb;fill-opacity:1;fill-rule:nonzero;stroke:none"
             id="path652" /></g><g
           id="g654"
           transform="translate(404.4268,142.2676)"><path
             d="M 0,0 C 1.041,-0.082 0.783,0.5 0.589,1.041 L 0,0 z"
             style="fill:#1b75bb;fill-opacity:1;fill-rule:nonzero;stroke:none"
             id="path656" /></g></g></g><g
       id="g658"><g
         id="g660"
         clip-path="url(#clipPath662)"><path
           d="m 72.952,48.391 -60.018,0 0,31.035 60.018,0 0,-31.035 z"
           style="fill:#1b75bb;fill-opacity:1;fill-rule:evenodd;stroke:none"
           id="path666" /></g></g><text
       transform="matrix(1,0,0,-1,82.8232,67.207)"
       id="text668"><tspan
         style="fill:#000000;fill-opacity:1;fill-rule:nonzero;stroke:none;font-family:Arial;font-variant:normal;font-weight:normal;font-stretch:normal;font-size:11;writing-mode:lr;-inkscape-font-specification:ArialMT"
         x="0 7.942 11 14.058 20.174 26.29 29.348 37.906 40.964 44.022 49.313 55.429 61.545 64.603 71.94 74.998 78.056 84.172 90.288"
         y="0"
         sodipodi:role="line"
         id="tspan670">R: 27 G: 117 B: 187</tspan><tspan
         style="fill:#000000;fill-opacity:1;fill-rule:nonzero;stroke:none;font-family:Arial;font-variant:normal;font-weight:normal;font-stretch:normal;font-size:11;writing-mode:lr;-inkscape-font-specification:ArialMT"
         x="0 6.116 12.232 19.569 25.685 31.801 39.138"
         y="13.2"
         sodipodi:role="line"
         id="tspan672">#1B75BB</tspan><tspan
         style="fill:#000000;fill-opacity:1;fill-rule:nonzero;stroke:none;font-family:Arial;font-variant:normal;font-weight:normal;font-stretch:normal;font-size:11;writing-mode:lr;-inkscape-font-specification:ArialMT"
         x="-1.001 6.941 9.999 13.057 19.173 25.289 31.405 34.463 43.021 46.079 49.137 55.253 61.369 67.485 70.543 77.88 80.938 83.996 90.112 96.228"
         y="37.961"
         sodipodi:role="line"
         id="tspan674">R: 181 G: 181 B: 181</tspan><tspan
         style="fill:#000000;fill-opacity:1;fill-rule:nonzero;stroke:none;font-family:Arial;font-variant:normal;font-weight:normal;font-stretch:normal;font-size:11;writing-mode:lr;-inkscape-font-specification:ArialMT"
         x="-1.001 5.115 12.452 18.568 25.905 32.021 39.358"
         y="51.161"
         sodipodi:role="line"
         id="tspan676">#B5B5B5</tspan></text>
<g
       id="g678"><g
         id="g680"
         clip-path="url(#clipPath682)"><path
           d="m 252.125,48.011 -60.019,0 0,31.035 60.019,0 0,-31.035 z"
           style="fill:#1b75bb;fill-opacity:1;fill-rule:evenodd;stroke:none"
           id="path686" /><path
           d="m 252.125,9.308 -60.019,0 0,31.035 60.019,0 0,-31.035 z"
           style="fill:#2cb5d3;fill-opacity:1;fill-rule:evenodd;stroke:none"
           id="path688" /></g></g><text
       transform="matrix(1,0,0,-1,261.9961,28.124)"
       id="text690"><tspan
         style="fill:#000000;fill-opacity:1;fill-rule:nonzero;stroke:none;font-family:Arial;font-variant:normal;font-weight:normal;font-stretch:normal;font-size:11;writing-mode:lr;-inkscape-font-specification:ArialMT"
         x="0 7.942 11 14.058 20.174 26.29 29.348 37.906 40.964 44.022 50.138 56.254 62.37 65.428 72.765 75.823 78.881 84.997 90.288"
         y="0"
         sodipodi:role="line"
         id="tspan692">R: 44 G: 181 B: 211</tspan><tspan
         style="fill:#000000;fill-opacity:1;fill-rule:nonzero;stroke:none;font-family:Arial;font-variant:normal;font-weight:normal;font-stretch:normal;font-size:11;writing-mode:lr;-inkscape-font-specification:ArialMT"
         x="0 6.116 12.232 20.174 27.511 33.627 41.569"
         y="13.2"
         sodipodi:role="line"
         id="tspan694">#2CB5D3</tspan><tspan
         style="fill:#000000;fill-opacity:1;fill-rule:nonzero;stroke:none;font-family:Arial;font-variant:normal;font-weight:normal;font-stretch:normal;font-size:11;writing-mode:lr;-inkscape-font-specification:ArialMT"
         x="-249.062 -243.562 -237.446 -231.946 -228.888 -222.772"
         y="-57.673"
         sodipodi:role="line"
         id="tspan696">Texto:</tspan><tspan
         style="fill:#000000;fill-opacity:1;fill-rule:nonzero;stroke:none;font-family:Arial;font-variant:normal;font-weight:normal;font-stretch:normal;font-size:11;writing-mode:lr;-inkscape-font-specification:ArialMT"
         x="-70.18 -62.843 -59.18 -53.064 -46.948 -44.506 -38.39 -32.89"
         y="-54.67"
         sodipodi:role="line"
         id="tspan698">Prdios:</tspan></text>
<g
       id="g700"><g
         id="g702"
         clip-path="url(#clipPath704)"><path
           d="m 72.714,10.724 -60.018,0 0,31.035 60.018,0 0,-31.035 z"
           style="fill:#b5b5b5;fill-opacity:1;fill-rule:evenodd;stroke:none"
           id="path708" /></g></g><text
       transform="matrix(1,0,0,-1,261.8232,67.7246)"
       id="text710"><tspan
         style="fill:#000000;fill-opacity:1;fill-rule:nonzero;stroke:none;font-family:Arial;font-variant:normal;font-weight:normal;font-stretch:normal;font-size:11;writing-mode:lr;-inkscape-font-specification:ArialMT"
         x="0 7.942 11 14.058 20.174 26.29 29.348 37.906 40.964 44.022 49.313 55.429 61.545 64.603 71.94 74.998 78.056 84.172 90.288"
         y="0"
         sodipodi:role="line"
         id="tspan712">R: 27 G: 117 B: 187</tspan><tspan
         style="fill:#000000;fill-opacity:1;fill-rule:nonzero;stroke:none;font-family:Arial;font-variant:normal;font-weight:normal;font-stretch:normal;font-size:11;writing-mode:lr;-inkscape-font-specification:ArialMT"
         x="0 6.116 12.232 19.569 25.685 31.801 39.138"
         y="13.2"
         sodipodi:role="line"
         id="tspan714">#1B75BB</tspan><tspan
         style="fill:#000000;fill-opacity:1;fill-rule:nonzero;stroke:none;font-family:Arial;font-variant:normal;font-weight:normal;font-stretch:normal;font-size:11;writing-mode:lr;-inkscape-font-specification:ArialMT"
         x="110.22 113.883 116.534 125.092 127.743 131.406 134.464 140.58 144.243 150.359 153.417 159.533 163.196 166.859 169.51 175.626 181.742 184.393 186.835 192.951 199.067 205.183 214.346 220.462 224.125 229.625 235.741 238.392 244.508 247.159 253.275 259.391 264.891 267.333 273.449 279.565 285.681 288.123 290.774 296.89 299.541 305.657 311.157 317.273 323.389 329.505 332.156 338.272 344.388 350.504 356.62 362.736 368.236"
         y="-16.643"
         sodipodi:role="line"
         id="tspan716">- O .org.br da logomarca  opcional e usado apenas </tspan><tspan
         style="fill:#000000;fill-opacity:1;fill-rule:nonzero;stroke:none;font-family:Arial;font-variant:normal;font-weight:normal;font-stretch:normal;font-size:11;writing-mode:lr;-inkscape-font-specification:ArialMT"
         x="110.22 115.72 121.836 127.336 133.452 136.51 142.01 148.126 151.184 157.3 163.416 168.916 175.032 177.474 183.59 186.648 189.706 195.822 201.322 207.438 211.101 214.159 217.822 223.938 226.996 233.112 236.775 242.891 249.007 254.507 256.949 263.065 266.123 272.239 278.355 281.413 286.913 289.355 292.413 298.529"
         y="-3.443"
         sodipodi:role="line"
         id="tspan718">caso se deseje fazer referencia ao site.</tspan><tspan
         style="fill:#000000;fill-opacity:1;fill-rule:nonzero;stroke:none;font-family:Arial;font-variant:normal;font-weight:normal;font-stretch:normal;font-size:11;writing-mode:lr;-inkscape-font-specification:ArialMT"
         x="110.22 113.883 116.336 123.068 126.126 128.568 134.684 140.8 146.916 156.079 162.195 165.858 171.358 177.474 180.532 186.648 192.764 198.88 201.938 207.438 213.554 216.612 220.275 226.391 229.449 235.565 238.007 241.065 247.181 250.844 256.96 262.46 268.576 274.692 280.192 283.25 289.366 298.529 301.587 304.645 310.761 316.877 322.993 329.109 332.167 338.283 343.783 349.283 355.399 359.062"
         y="22.957"
         sodipodi:role="line"
         id="tspan720">- A logomarca nao sofre alteraes em fundo escuro</tspan><tspan
         style="fill:#000000;fill-opacity:1;fill-rule:nonzero;stroke:none;font-family:Arial;font-variant:normal;font-weight:normal;font-stretch:normal;font-size:11;writing-mode:lr;-inkscape-font-specification:ArialMT"
         x="110.22 113.883 116.842 124.179 130.295 133.98 137.643 143.759 149.875 152.317 161.48 167.596 173.712 179.212 181.654 187.77 193.886 200.002 203.665 207.35 213.466 219.582 225.082 231.198 234.861 240.361 246.477 250.162 256.278 259.963 266.079 269.742 275.858 281.358 286.858 292.974 296.637 302.753 306.438 312.554 318.67 322.355 327.855 330.913 334.576 340.692 346.192 352.308 355.993 362.109 368.225"
         y="49.357"
         sodipodi:role="line"
         id="tspan722">- Ao redimensionar observe a grossura do stroke ao </tspan><tspan
         style="fill:#000000;fill-opacity:1;fill-rule:nonzero;stroke:none;font-family:Arial;font-variant:normal;font-weight:normal;font-stretch:normal;font-size:11;writing-mode:lr;-inkscape-font-specification:ArialMT"
         x="110.22 113.883 119.999 126.115 132.231 135.894 138.952 145.068 151.184 154.242 160.358 166.474 168.916 175.032 178.09 184.206 187.264 193.38 197.043 203.159 208.659 214.775 218.438 224.554 227.612 236.775 242.891 249.007 252.065 258.181 261.844 264.902 271.018 274.681 280.797 286.913 293.029 296.692 302.192 304.634 310.75 316.866 322.982"
         y="62.557"
         sodipodi:role="line"
         id="tspan724">redor da bola e procure manter proporcional</tspan></text>
</g></svg>